    <svg preserveAspectRatio="xMinYMid meet" class="logo__svg" viewBox="0 0 238 46" fill="#fff" xmlns="http://www.w3.org/2000/svg">
      <path d="M50.7847 45.0846V0.121094H42.3132L25.3923 28.2316L8.47148 0.121094H0V45.0846H9.40047V18.8467L22.5611 40.3922H28.2235L41.3842 18.8467V45.0846H50.7847Z" />
      <path d="M65.8255 36.6461V26.358H89.3377V17.9205H65.8255V8.55766H94.049V0.120117H55.496V45.0836H94.049V36.6461H65.8255Z" />
      <path d="M155.512 27.1632L163.984 10.3101L172.455 27.1632H155.512ZM179.954 44.9635H192.185L169.624 0H158.343L135.782 44.9635H148.014L152.725 35.6007H175.286L179.954 44.9635Z" />
      <path d="M117.888 44.9635H129.169V8.43754H148.921V0H98.1363V8.43754H117.888V44.9635Z" />
      <path d="M231.358 22.6685C230.65 22.6685 229.986 22.4923 229.389 22.1618C228.792 21.8314 228.349 21.3467 228.018 20.7519C227.686 20.1351 227.531 19.4521 227.531 18.659C227.531 17.866 227.686 17.183 228.018 16.5662C228.349 15.9493 228.814 15.4867 229.389 15.1563C229.986 14.8258 230.628 14.6716 231.358 14.6716C232.087 14.6716 232.751 14.8258 233.326 15.1563C233.901 15.4867 234.366 15.9493 234.697 16.5662C235.029 17.183 235.206 17.866 235.206 18.659C235.206 19.4521 235.029 20.1351 234.697 20.7519C234.366 21.3687 233.901 21.8314 233.326 22.1618C232.751 22.4923 232.087 22.6685 231.358 22.6685ZM231.534 12.8651C230.716 12.8651 229.964 13.0193 229.278 13.3278C228.593 13.6362 228.018 14.0988 227.553 14.6936V8.43707H225.496V24.3428H227.487V22.5363C227.951 23.1752 228.526 23.6378 229.234 23.9683C229.942 24.2987 230.716 24.453 231.557 24.453C232.663 24.453 233.658 24.2106 234.52 23.726C235.405 23.2413 236.091 22.5584 236.578 21.6772C237.064 20.796 237.33 19.7826 237.33 18.637C237.33 17.4914 237.086 16.4781 236.578 15.6189C236.091 14.7377 235.405 14.0768 234.52 13.5921C233.636 13.1075 232.64 12.8651 231.534 12.8651ZM219.259 12.9753V18.8573C219.259 20.069 218.949 20.9942 218.307 21.6551C217.666 22.316 216.803 22.6465 215.72 22.6465C214.724 22.6465 213.972 22.3601 213.441 21.8093C212.91 21.2366 212.645 20.4214 212.645 19.3199V12.9753H210.588V19.5182C210.588 21.1484 211.03 22.3821 211.893 23.2193C212.778 24.0564 213.972 24.475 215.498 24.475C216.295 24.475 217.047 24.3208 217.732 23.9903C218.418 23.6599 218.971 23.2193 219.369 22.6245V24.3428H221.338V12.9753H219.259ZM202.05 12.8651C201.188 12.8651 200.413 13.0193 199.706 13.3057C199.02 13.6141 198.445 14.0327 198.025 14.5614V8.41504H195.967V24.3208H198.025V18.4828C198.025 17.2711 198.356 16.3459 198.998 15.685C199.639 15.0241 200.524 14.7157 201.652 14.7157C202.647 14.7157 203.399 15.002 203.93 15.5528C204.461 16.1036 204.727 16.9407 204.727 18.0422V24.3428H206.784V17.7999C206.784 16.1917 206.363 14.958 205.501 14.1208C204.638 13.2837 203.488 12.8651 202.05 12.8651Z" />
    </svg>