
<svg width="17px" height="11px" viewBox="0 0 17 11" version="1.1" xmlns="http://www.w3.org/2000/svg" xmlns:xlink="http://www.w3.org/1999/xlink">
    <title>ic_location</title>
    <g id="Ontwerp" stroke="none" stroke-width="1" fill="none" fill-rule="evenodd">
        <g id="assets" transform="translate(-343.000000, -48.000000)" fill="#871987" fill-rule="nonzero">
            <path d="M351.5,59 C353.404965,59 355.129078,58.4958333 356.67234,57.4875 C358.215603,56.4791667 359.324823,55.15 360,53.5 C359.324823,51.85 358.215603,50.5208333 356.67234,49.5125 C355.129078,48.5041667 353.404965,48 351.5,48 C349.595035,48 347.870922,48.5041667 346.32766,49.5125 C344.784397,50.5208333 343.675177,51.85 343,53.5 C343.675177,55.15 344.784397,56.4791667 346.32766,57.4875 C347.870922,58.4958333 349.595035,59 351.5,59 Z M351.5,57.178125 C350.439007,57.178125 349.522695,56.8229167 348.751064,56.1125 C348.003546,55.3791667 347.629787,54.5083333 347.629787,53.5 C347.629787,52.4916667 348.009574,51.6265625 348.769149,50.9046875 C349.528723,50.1828125 350.439007,49.821875 351.5,49.821875 C352.560993,49.821875 353.471277,50.1828125 354.230851,50.9046875 C354.990426,51.6265625 355.370213,52.4916667 355.370213,53.5 C355.370213,54.5083333 354.990426,55.3734375 354.230851,56.0953125 C353.471277,56.8171875 352.560993,57.178125 351.5,57.178125 Z M351.5,55.7 C352.12695,55.7 352.669504,55.4822917 353.12766,55.046875 C353.585816,54.6114583 353.814894,54.0958333 353.814894,53.5 C353.814894,52.9041667 353.585816,52.3885417 353.12766,51.953125 C352.669504,51.5177083 352.12695,51.3 351.5,51.3 C350.87305,51.3 350.330496,51.5177083 349.87234,51.953125 C349.414184,52.3885417 349.185106,52.9041667 349.185106,53.5 C349.185106,54.0958333 349.414184,54.6114583 349.87234,55.046875 C350.330496,55.4822917 350.87305,55.7 351.5,55.7 Z" id="ic_location"></path>
        </g>
    </g>
</svg>
