
<svg width="28px" height="20px" viewBox="0 0 28 20" version="1.1" xmlns="http://www.w3.org/2000/svg" xmlns:xlink="http://www.w3.org/1999/xlink"  role="img">
    <title>Quote Icon</title>
    <g id="Ontwerp" stroke="none" stroke-width="1" fill="none" fill-rule="evenodd">
        <g id="assets" transform="translate(-470.000000, -45.000000)" fill="#232D8C" fill-rule="nonzero">
            <path d="M490.363636,65 L492.060606,64.1666667 L497.151515,57.5 L498,55 L498,45.8333333 L497.151515,45 L488.666667,45 L487.818182,45.8333333 L487.818182,54.1666667 L488.666667,55 L491.212121,55 L492.060606,55.8333333 L492.060606,56.6666667 L486.969697,64.1666667 L486.969697,65 L490.363636,65 Z M473.393939,65 L475.090909,64.1666667 L480.181818,57.5 L481.030303,55 L481.030303,45.8333333 L480.181818,45 L471.69697,45 L470.848485,45.8333333 L470.848485,54.1666667 L471.69697,55 L474.242424,55 L475.090909,55.8333333 L475.090909,56.6666667 L470,64.1666667 L470,65 L473.393939,65 Z" id="ic_quote"></path>
        </g>
    </g>
</svg>
