
<svg width="42px" height="42px" viewBox="0 0 42 42" version="1.1" xmlns="http://www.w3.org/2000/svg" xmlns:xlink="http://www.w3.org/1999/xlink">
    <title>Path</title>
    <g id="Ontwerp" stroke="none" stroke-width="1" fill="none" fill-rule="evenodd">
        <g id="assets" transform="translate(-225.000000, -359.000000)" fill-rule="nonzero">
            <g id="ic_pause" transform="translate(224.031250, 358.031250)">
                <path d="M22,41.9375 C27.5086072,41.9375 32.2190923,39.984375 36.1314554,36.078125 C40.0438185,32.171875 42,27.46875 42,21.96875 C42,16.46875 40.0438185,11.765625 36.1314554,7.859375 C32.2190923,3.953125 27.5086072,2 22,2 C16.4913928,2 11.7652582,3.96875 7.82159624,7.90625 C3.94053208,11.78125 2,16.46875 2,21.96875 C2,27.46875 3.95618153,32.171875 7.8685446,36.078125 C11.7809077,39.984375 16.4913928,41.9375 22,41.9375 Z" id="Path" fill="#232D8C"></path>
                <polygon id="Path" fill="#FFFFFF" points="27.96875 29.9375 23.9375 29.9375 23.9375 14 27.96875 14"></polygon>
                <polygon id="Path" fill="#FFFFFF" points="20 29.9375 15.96875 29.9375 15.96875 14 20 14"></polygon>
            </g>
        </g>
    </g>
</svg>