
<svg width="23px" height="23px" viewBox="0 0 23 23" version="1.1" xmlns="http://www.w3.org/2000/svg" xmlns:xlink="http://www.w3.org/1999/xlink" role="img">
    <title>Search Icon</title>
    <g id="Ontwerp" stroke="none" stroke-width="1" fill="none" fill-rule="evenodd">
        <g id="assets" transform="translate(-49.000000, -41.000000)" fill="#434343" fill-rule="nonzero">
            <path d="M70.0268097,64 L72,62.0268097 L65.463807,55.4906166 L64.4155496,55.4906166 L64.0455764,55.1206434 C65.4021448,53.5585344 66.080429,51.7086685 66.080429,49.5710456 C66.080429,47.1867739 65.2582663,45.1621984 63.613941,43.497319 C61.9696157,41.8324397 59.9553172,41 57.5710456,41 C55.1867739,41 53.1621984,41.8324397 51.497319,43.497319 C49.8324397,45.1621984 49,47.1867739 49,49.5710456 C49,51.9553172 49.8324397,53.9696157 51.497319,55.613941 C53.1621984,57.2582663 55.1867739,58.080429 57.5710456,58.080429 C59.7086685,58.080429 61.5585344,57.4021448 63.1206434,56.0455764 L63.1206434,56.0455764 L63.4906166,56.4155496 L63.4906166,57.463807 L70.0268097,64 Z M57.5710456,55.4906166 C55.9267203,55.4906166 54.5290438,54.9151028 53.3780161,53.7640751 C52.2269884,52.6130474 51.6514745,51.2153709 51.6514745,49.5710456 C51.6514745,47.9267203 52.2269884,46.5290438 53.3780161,45.3780161 C54.5290438,44.2269884 55.9267203,43.6514745 57.5710456,43.6514745 C59.2153709,43.6514745 60.6130474,44.2269884 61.7640751,45.3780161 C62.9151028,46.5290438 63.4906166,47.9267203 63.4906166,49.5710456 C63.4906166,51.2153709 62.9151028,52.6130474 61.7640751,53.7640751 C60.6130474,54.9151028 59.2153709,55.4906166 57.5710456,55.4906166 Z" id="ic_search"></path>
        </g>
    </g>
</svg>
