
<svg width="24px" height="24px" viewBox="0 0 24 24" version="1.1" xmlns="http://www.w3.org/2000/svg" xmlns:xlink="http://www.w3.org/1999/xlink">
    <title>ic_zoom in</title>
    <g id="Ontwerp" stroke="none" stroke-width="1" fill="none" fill-rule="evenodd">
        <path d="M21.3125,23.5257034 L23.3125,21.5257034 L16.6875,14.9007034 L15.625,14.9007034 L15.25,14.5257034 C16.625,12.9423701 17.3125,11.0673701 17.3125,8.90070344 C17.3125,6.48403677 16.4791667,4.43195344 14.8125,2.74445344 C13.1458333,1.05695344 11.1041667,0.213203436 8.6875,0.213203436 C6.27083333,0.213203436 4.21875,1.05695344 2.53125,2.74445344 C0.84375,4.43195344 0,6.48403677 0,8.90070344 C0,11.3173701 0.84375,13.3590368 2.53125,15.0257034 C4.21875,16.6923701 6.27083333,17.5257034 8.6875,17.5257034 C10.8541667,17.5257034 12.7291667,16.8382034 14.3125,15.4632034 L14.3125,15.4632034 L14.6875,15.8382034 L14.6875,16.9007034 L21.3125,23.5257034 Z M8.6875,14.9007034 C7.02083333,14.9007034 5.60416667,14.3173701 4.4375,13.1507034 C3.27083333,11.9840368 2.6875,10.5673701 2.6875,8.90070344 C2.6875,7.23403677 3.27083333,5.8173701 4.4375,4.65070344 C5.60416667,3.48403677 7.02083333,2.90070344 8.6875,2.90070344 C10.3541667,2.90070344 11.7708333,3.48403677 12.9375,4.65070344 C14.1041667,5.8173701 14.6875,7.23403677 14.6875,8.90070344 C14.6875,10.5673701 14.1041667,11.9840368 12.9375,13.1507034 C11.7708333,14.3173701 10.3541667,14.9007034 8.6875,14.9007034 Z M9.3125,12.2132034 L9.3125,9.52570344 L12,9.52570344 L12,8.21320344 L9.3125,8.21320344 L9.3125,5.52570344 L8,5.52570344 L8,8.21320344 L5.3125,8.21320344 L5.3125,9.52570344 L8,9.52570344 L8,12.2132034 L9.3125,12.2132034 Z" id="ic_zoom-in" fill="#434343" fill-rule="nonzero"></path>
    </g>
</svg>