
<svg xmlns="http://www.w3.org/2000/svg" viewBox="0 0 880 880" fill="currentColor">
  <path d="M725.6 663.8C708.2 684.6 649 746 556 746c-111.8 0-131-53-273-53S85 738 85 738s-6.8-150.9 155-196c0 0-60.5-63.9-199-53 0 0 40.4-161.3 226-170 0 0-39.5-80.1-185-93 0 0 84.4-112 279-112 0 0 184.2-8.4 341 151 1.4-.4 104-30.6 132-7 27.7 23.3-33.8 136.9-36 140.9 9.6 27.1 34.7 119.8-31 208.7 20.6 4.7 35 15.2 35 27.4 0 16.6-26.7 30-59.5 30-5.9 0-11.5-.4-16.9-1.2zM541 334s-83-7.3-83 136 66.9 160 116 160c49.1 0 89.5-33.5 135-11l33.5-5S783 573.8 783 483s-31.3-89.7-40.5-47-59.2 154.5-74.5 69c-15.3-85.5-44.7-171-127-171zm171.6 193.6c2.2-10 10.6-16.7 18.8-15 8.2 1.9 13 11.4 11 21.4l-.1.1s-3 27-11.3 52l-.1.3c-2.2 10-10.7 16.7-18.9 14.9-8.2-1.8-13-11.4-10.8-21.4 0 0 2.3-26.8 11.4-52.3zm-214-60.5c2-16 16-27.3 31-25.4 15 2 25.5 16.4 23.5 32.3v.2s-.4 43.2-10.6 83.3c-2 16-16 27.5-31 25.6-15-2-25.6-16.5-23.6-32.5 0 0-.8-42.3 10.6-83.4v-.1z"/>
</svg>
