
<svg xmlns="http://www.w3.org/2000/svg" x="0" y="0" width="213" height="40" viewBox="0 0 213 40" preserveAspectRatio="xMinYMid meet">
  <title>METAhub</title>

  <path d="M33.33 0L20 24.92 6.67 0H0v40h7.5V17.05l10.83 19.01h3.34L32.5 17.05V40H40V0z"/>
  <path d="M44 0v40h51v-8H57.91v-9.14h30.13V16H57.91V8H95V0z"/>
  <path d="M99 0v7.21h15.83V40h8.34V7.21H139V0z"/>
  <path d="M152 9.1l5.57 15.16h-11.15zM147.74 0L132 40h8.52l3.28-8.52h16.39l3.28 8.52H172L156.26 0z"/>
  <path d="M207.74 20.5c-.64 0-1.21-.15-1.74-.45-.52-.3-.93-.72-1.22-1.26s-.44-1.16-.44-1.86.15-1.32.44-1.86.7-.96 1.22-1.25 1.1-.44 1.74-.44c.65 0 1.23.15 1.75.44.51.29.92.71 1.22 1.25s.45 1.16.45 1.86-.15 1.32-.45 1.86a3.29 3.29 0 01-2.97 1.71m.15-8.72c-.72 0-1.39.14-2 .41s-1.12.68-1.53 1.21V7.83h-1.83v14.15h1.76v-1.6c.41.56.92.98 1.54 1.28a5.31 5.31 0 004.69-.21c.78-.43 1.38-1.04 1.82-1.82s.66-1.68.66-2.7-.22-1.91-.66-2.69-1.05-1.38-1.82-1.81a5.34 5.34 0 00-2.63-.65m-11.02.1v5.23c0 1.07-.28 1.89-.84 2.48-.56.58-1.32.88-2.29.88-.88 0-1.55-.25-2.02-.75s-.71-1.24-.71-2.22v-5.61h-1.83v5.82c0 1.45.39 2.55 1.16 3.29s1.84 1.11 3.18 1.11c.71 0 1.37-.14 1.98-.43.6-.29 1.09-.69 1.46-1.21V22h1.74V11.88zm-15.47-.1c-.76 0-1.45.13-2.07.4s-1.12.64-1.5 1.12V7.83H176v14.15h1.83v-5.21c0-1.08.29-1.91.86-2.49s1.36-.87 2.35-.87c.88 0 1.55.25 2.02.74.47.5.71 1.23.71 2.21v5.61h1.83v-5.82c0-1.44-.38-2.53-1.14-3.27a4.23 4.23 0 00-3.06-1.1"/>
</svg>
