

<svg xmlns="http://www.w3.org/2000/svg" x="0" y="0" width="213" height="40" viewBox="0 0 213 40" preserveAspectRatio="xMinYMid meet">
  <title>METAhub</title>

  <g class="logo-frame logo-frame--1">
    <path d="M37.5 0l-15 25-15-25H0v40h8.33V16.67L20 35.83h5l11.67-19.16V40H45V0z"/>
    <path d="M50 0v40h34v-7.5H59.12v-9.17h20.73v-7.5H59.12V7.5H84V0z"/>
    <path d="M89 0v7.5h17.5V40h10V7.5H134V0z"/>
    <path d="M147 9.17l7.5 15h-15zM142 0l-20 40h10.83l4.17-8.33h20l4.17 8.33H172L152 0z"/>
  </g>

  <g class="logo-frame logo-frame--2">
    <path d="M60.83 0L36.5 25 12.17 0H0v40h13.52V16.67l18.92 19.16h8.12l18.92-19.16V40H73V0z"/>
    <path d="M77 0v40h40v-7.5H87.29v-9.17h25.14v-7.5H87.29V7.5H117V0z"/>
    <path d="M121 0v7.5h11.28V40h6.44V7.5H150V0z"/>
    <path d="M157.5 9.1l4.04 15.16h-8.08zM154.41 0L143 40h6.18l2.38-8.52h11.88l2.38 8.52H172L160.59 0z"/>
  </g>

  <g class="logo-frame logo-frame--3">
    <path d="M33.33 0L20 24.92 6.67 0H0v40h7.5V17.05l10.83 19.01h3.34L32.5 17.05V40H40V0z"/>
    <path d="M44 0v40h51v-8H57.91v-9.14h30.13V16H57.91V8H95V0z"/>
    <path d="M99 0v7.21h15.83V40h8.34V7.21H139V0z"/>
    <path d="M152 9.1l5.57 15.16h-11.15zM147.74 0L132 40h8.52l3.28-8.52h16.39l3.28 8.52H172L156.26 0z"/>
  </g>

  <g class="logo-frame logo-frame--4">
    <path d="M24.17 0L14.5 24.92 4.83 0H0v40h5.44V17.05l7.85 19.01h2.42l7.85-19.01V40H29V0z"/>
    <path d="M33 0v40h40v-8H43.91v-9.14h23.64V16H43.91V8H73V0z"/>
    <path d="M77 0v7.21h24.54V40h12.92V7.21H139V0z"/>
    <path d="M152 9.1l5.57 15.16h-11.15zM147.74 0L132 40h8.52l3.28-8.52h16.39l3.28 8.52H172L156.26 0z"/>
  </g>

  <g class="logo-frame logo-frame--5">
    <path d="M24.17 0L14.5 24.92 4.83 0H0v40h5.44V17.05l7.85 19.01h2.42l7.85-19.01V40H29V0z"/>
    <path d="M33 0v40h29v-7.5H40.85v-9.17h18.13v-7.5H40.85V7.5H62V0z"/>
    <path d="M66 0v7.5h20.32V40h10.5V7.5H117V0z"/>
    <path d="M135.5 9.17l10.85 15h-21.7zM128.59 0L99 40h15.79l5.92-8.33h29.6l5.92 8.33H172L142.41 0z"/>
  </g>

  <g class="logo-frame logo-frame--6">
    <path d="M37.5 0l-15 25-15-25H0v40h8.33V16.67L20 35.83h5l11.67-19.16V40H45V0z"/>
    <path d="M50 0v40h34v-7.5H59.12v-9.17h20.73v-7.5H59.12V7.5H84V0z"/>
    <path d="M89 0v7.5h17.5V40h10V7.5H134V0z"/>
    <path d="M147 9.17l7.5 15h-15zM142 0l-20 40h10.83l4.17-8.33h20l4.17 8.33H172L152 0z"/>
  </g>

  <path d="M207.74 20.5c-.64 0-1.21-.15-1.74-.45-.52-.3-.93-.72-1.22-1.26s-.44-1.16-.44-1.86.15-1.32.44-1.86.7-.96 1.22-1.25 1.1-.44 1.74-.44c.65 0 1.23.15 1.75.44.51.29.92.71 1.22 1.25s.45 1.16.45 1.86-.15 1.32-.45 1.86a3.29 3.29 0 01-2.97 1.71m.15-8.72c-.72 0-1.39.14-2 .41s-1.12.68-1.53 1.21V7.83h-1.83v14.15h1.76v-1.6c.41.56.92.98 1.54 1.28a5.31 5.31 0 004.69-.21c.78-.43 1.38-1.04 1.82-1.82s.66-1.68.66-2.7-.22-1.91-.66-2.69-1.05-1.38-1.82-1.81a5.34 5.34 0 00-2.63-.65m-11.02.1v5.23c0 1.07-.28 1.89-.84 2.48-.56.58-1.32.88-2.29.88-.88 0-1.55-.25-2.02-.75s-.71-1.24-.71-2.22v-5.61h-1.83v5.82c0 1.45.39 2.55 1.16 3.29s1.84 1.11 3.18 1.11c.71 0 1.37-.14 1.98-.43.6-.29 1.09-.69 1.46-1.21V22h1.74V11.88zm-15.47-.1c-.76 0-1.45.13-2.07.4s-1.12.64-1.5 1.12V7.83H176v14.15h1.83v-5.21c0-1.08.29-1.91.86-2.49s1.36-.87 2.35-.87c.88 0 1.55.25 2.02.74.47.5.71 1.23.71 2.21v5.61h1.83v-5.82c0-1.44-.38-2.53-1.14-3.27a4.23 4.23 0 00-3.06-1.1"/>
</svg>
