<?xml version="1.0" encoding="UTF-8" standalone="no"?>
<!-- Created with Inkscape (http://www.inkscape.org/) -->

<svg
   xmlns:dc="http://purl.org/dc/elements/1.1/"
   xmlns:cc="http://creativecommons.org/ns#"
   xmlns:rdf="http://www.w3.org/1999/02/22-rdf-syntax-ns#"
   xmlns:svg="http://www.w3.org/2000/svg"
   xmlns="http://www.w3.org/2000/svg"
   xmlns:sodipodi="http://sodipodi.sourceforge.net/DTD/sodipodi-0.dtd"
   xmlns:inkscape="http://www.inkscape.org/namespaces/inkscape"
   width="131.3"
   height="41.049999"
   id="svg3721"
   version="1.1"
   inkscape:version="0.48.1 "
   sodipodi:docname="Neues Dokument 3">
  <defs
     id="defs3723">
    <clipPath
       clipPathUnits="userSpaceOnUse"
       id="clipPath58">
      <path
         inkscape:connector-curvature="0"
         d="m 22.946,7.928 111.235,0 0,51.174 -111.235,0 0,-51.174 z"
         id="path60" />
    </clipPath>
  </defs>
  <sodipodi:namedview
     id="base"
     pagecolor="#ffffff"
     bordercolor="#666666"
     borderopacity="1.0"
     inkscape:pageopacity="0.0"
     inkscape:pageshadow="2"
     inkscape:zoom="6.9143809"
     inkscape:cx="65.649999"
     inkscape:cy="20.525004"
     inkscape:document-units="px"
     inkscape:current-layer="layer1"
     showgrid="false"
     fit-margin-top="0"
     fit-margin-left="0"
     fit-margin-right="0"
     fit-margin-bottom="0"
     inkscape:window-width="1024"
     inkscape:window-height="708"
     inkscape:window-x="-4"
     inkscape:window-y="-4"
     inkscape:window-maximized="1" />
  <metadata
     id="metadata3726">
    <rdf:RDF>
      <cc:Work
         rdf:about="">
        <dc:format>image/svg+xml</dc:format>
        <dc:type
           rdf:resource="http://purl.org/dc/dcmitype/StillImage" />
        <dc:title></dc:title>
      </cc:Work>
    </rdf:RDF>
  </metadata>
  <g
     inkscape:label="Ebene 1"
     inkscape:groupmode="layer"
     id="layer1"
     transform="translate(-130.01805,-436.82185)">
    <path
       inkscape:connector-curvature="0"
       d="m 149.82342,464.0801 2.26625,0 0,12.79375 -2.26625,0 0,-12.79375 z"
       style="fill:#f2cf04;fill-opacity:1;fill-rule:nonzero;stroke:none"
       id="path48" />
    <path
       inkscape:connector-curvature="0"
       d="m 149.82342,451.24135 2.26625,0 0,12.83875 -2.26625,0 0,-12.83875 z"
       style="fill:#ed1c24;fill-opacity:1;fill-rule:nonzero;stroke:none"
       id="path50" />
    <path
       inkscape:connector-curvature="0"
       d="m 149.82342,438.4926 2.26625,0 0,12.7925 -2.26625,0 0,-12.7925 z"
       style="fill:#231f20;fill-opacity:1;fill-rule:nonzero;stroke:none"
       id="path52" />
    <g
       transform="matrix(1.25,0,0,-1.25,101.00592,499.5776)"
       id="g54">
      <g
         id="g56"
         clip-path="url(#clipPath58)">
        <g
           id="g62"
           transform="translate(33.398407,47.137207)">
          <path
             inkscape:connector-curvature="0"
             d="M 0,0 C 0,0.583 -0.424,1.044 -0.574,1.174 L -0.681,1.149 c 0.159,-0.193 0.439,-0.518 0.439,-0.947 0,-0.845 -0.894,-1.581 -1.914,-1.595 0.008,-0.086 0.007,-0.163 0.007,-0.229 0,-0.121 -0.008,-0.239 -0.022,-0.353 C -1.013,-1.955 0,-1.014 0,0 m -6.578,0.202 c 0,0.429 0.279,0.754 0.438,0.947 L -6.248,1.174 C -6.397,1.044 -6.822,0.583 -6.822,0 c 0,-1.021 1.029,-1.968 2.197,-1.976 -0.013,0.111 -0.02,0.229 -0.02,0.354 0,0.079 0.004,0.156 0.01,0.229 -1.032,0 -1.943,0.742 -1.943,1.595 m 3.138,0.786 c 0.054,0.123 0.125,0.268 0.125,0.428 0,0.442 -0.366,0.654 -0.858,0.654 -0.252,0 -0.38,-0.082 -0.38,-0.164 0,-0.082 0.083,-0.262 0.116,-0.317 0.091,0.04 0.254,0.087 0.349,0.087 0.337,0 0.589,-0.376 0.648,-0.688 m 0.242,0.567 c 0.287,-0.057 0.483,0.31 0.21,0.376 0.038,-0.122 -0.146,-0.207 -0.146,-0.207 0,0 -0.069,0.162 0.02,0.255 C -3.28,2.06 -3.322,1.962 -3.326,1.858 -3.26,1.771 -3.217,1.668 -3.198,1.555 m 0.93,-2.515 c 0.046,-0.003 0.089,-0.005 0.135,-0.005 0.809,0 1.611,0.523 1.611,1.193 0,0.357 -0.161,0.607 -0.359,0.884 -0.117,-0.02 -0.223,-0.03 -0.306,-0.03 -0.367,0 -0.566,0.196 -0.58,0.388 0,0.174 0.14,0.305 0.36,0.305 0.341,0 0.96,-0.318 1.585,-0.318 C 0.117,1.41 0.014,1.361 -0.109,1.315 0.257,0.986 0.502,0.544 0.595,0.072 L 1.553,-1.46 c 0.16,-0.257 0.5,-0.76 1.012,-1.152 -0.618,0 -1.03,-0.014 -1.554,0.814 l -0.49,0.786 C 0.484,-1.114 0.439,-1.214 0.388,-1.311 l 0.975,-1.561 c 0.163,-0.26 0.498,-0.758 1.014,-1.152 -0.62,0 -1.03,-0.015 -1.554,0.813 l -0.84,1.345 C -0.079,-1.934 -0.146,-1.998 -0.216,-2.062 L 0.97,-3.958 c 0.163,-0.26 0.498,-0.757 1.012,-1.152 -0.619,0 -1.029,-0.014 -1.553,0.814 l -1.155,1.849 C -0.802,-2.495 -0.88,-2.541 -0.961,-2.585 L 0.45,-4.842 c 0.162,-0.259 0.497,-0.756 1.012,-1.152 -0.618,0 -1.03,-0.014 -1.553,0.815 l -1.453,2.323 C -1.629,-2.888 -1.716,-2.92 -1.805,-2.948 l 1.641,-2.627 c 0.161,-0.255 0.503,-0.76 1.013,-1.151 -0.619,0 -1.03,-0.014 -1.554,0.814 l -1.748,2.799 -0.054,-0.009 c -0.047,-0.151 -0.08,-0.293 -0.08,-0.434 0,-0.879 0.577,-1.656 1.27,-2.255 -0.044,-0.02 -0.122,-0.027 -0.194,-0.027 -0.142,0 -0.234,0.008 -0.299,0.018 0.16,-0.364 0.505,-0.835 0.679,-1.079 0.226,0.04 0.557,0.072 0.774,0.072 0.225,0 0.25,-0.132 0.25,-0.249 0,-0.206 -0.096,-0.37 -0.207,-0.461 -0.042,0.106 -0.127,0.245 -0.544,0.245 L -0.9,-7.294 c 0.122,-0.135 0.504,-0.445 0.504,-0.693 0,-0.165 -0.18,-0.412 -0.419,-0.412 0.014,0.053 0.012,0.103 0.012,0.139 0,0.201 -0.178,0.437 -0.329,0.601 0.004,-0.048 0.003,-0.043 0.003,-0.1 0,-0.477 -0.043,-0.696 -0.346,-0.696 -0.149,0 -0.251,0.082 -0.286,0.105 0.196,0.182 0.207,0.324 0.207,0.591 l -0.002,0.232 c -10e-4,0.061 0,0.141 0.01,0.2 -0.109,0.015 -0.152,0.015 -0.235,0.015 0,0 -0.43,0.034 -0.534,-0.19 -0.116,0.107 -0.286,0.258 -0.286,0.425 0,0.111 0.053,0.234 0.273,0.234 0.085,0 0.348,-0.051 0.569,-0.051 -0.059,0.132 -0.324,0.518 -0.552,0.798 -0.034,-0.109 -0.088,-0.226 -0.209,-0.322 -0.016,0.18 -0.121,0.749 -0.403,1.082 -0.033,-0.224 -0.078,-0.456 -0.078,-0.942 0,-1.184 0.286,-2.059 0.89,-2.225 -0.079,-0.138 -0.245,-0.261 -0.417,-0.261 -0.222,0 -0.342,0.251 -0.465,0.487 -0.064,-0.175 -0.24,-0.602 -0.417,-0.602 -0.177,0 -0.354,0.427 -0.418,0.602 -0.123,-0.236 -0.244,-0.487 -0.464,-0.487 -0.173,0 -0.34,0.123 -0.419,0.261 0.605,0.166 0.89,1.041 0.89,2.225 0,0.486 -0.044,0.718 -0.077,0.942 -0.282,-0.333 -0.387,-0.902 -0.404,-1.082 -0.12,0.096 -0.174,0.213 -0.208,0.322 -0.228,-0.28 -0.492,-0.666 -0.552,-0.798 0.221,0 0.485,0.051 0.568,0.051 0.222,0 0.273,-0.123 0.273,-0.234 0,-0.167 -0.169,-0.318 -0.285,-0.425 -0.103,0.224 -0.533,0.19 -0.533,0.19 -0.083,0 -0.128,0 -0.236,-0.015 0.01,-0.059 0.011,-0.139 0.011,-0.2 l -0.002,-0.232 c 0,-0.267 0.01,-0.409 0.207,-0.591 -0.036,-0.023 -0.138,-0.105 -0.287,-0.105 -0.302,0 -0.346,0.219 -0.346,0.696 0,0.057 -0.002,0.052 0.003,0.1 -0.15,-0.164 -0.329,-0.4 -0.329,-0.601 0,-0.036 -0.003,-0.086 0.011,-0.139 -0.238,0 -0.418,0.247 -0.418,0.412 0,0.248 0.382,0.558 0.504,0.693 l -0.042,0.002 c -0.417,0 -0.501,-0.139 -0.544,-0.245 -0.112,0.091 -0.208,0.255 -0.208,0.461 0,0.117 0.026,0.249 0.252,0.249 0.216,0 0.546,-0.032 0.773,-0.072 0.174,0.244 0.519,0.715 0.68,1.079 -0.065,-0.01 -0.158,-0.018 -0.301,-0.018 -0.072,0 -0.148,0.007 -0.193,0.027 0.693,0.599 1.27,1.376 1.27,2.255 0,0.141 -0.033,0.283 -0.081,0.434 l -0.052,0.009 -1.75,-2.799 C -6.64,-6.74 -7.05,-6.726 -7.67,-6.726 c 0.51,0.391 0.853,0.896 1.013,1.151 l 1.641,2.627 c -0.088,0.028 -0.176,0.06 -0.262,0.092 L -6.73,-5.179 c -0.524,-0.829 -0.934,-0.815 -1.554,-0.815 0.516,0.396 0.85,0.893 1.013,1.152 l 1.41,2.257 c -0.08,0.044 -0.158,0.09 -0.234,0.138 L -7.25,-4.296 c -0.524,-0.828 -0.934,-0.814 -1.554,-0.814 0.516,0.395 0.851,0.892 1.014,1.152 l 1.185,1.896 c -0.07,0.064 -0.137,0.128 -0.199,0.196 l -0.84,-1.345 c -0.524,-0.828 -0.934,-0.813 -1.553,-0.813 0.514,0.394 0.85,0.892 1.013,1.152 l 0.976,1.561 c -0.053,0.097 -0.098,0.197 -0.134,0.299 l -0.491,-0.786 c -0.524,-0.828 -0.934,-0.814 -1.554,-0.814 0.513,0.392 0.853,0.895 1.014,1.152 l 0.957,1.532 c 0.093,0.472 0.338,0.914 0.703,1.243 -0.122,0.046 -0.225,0.095 -0.286,0.142 0.625,0 1.244,0.318 1.584,0.318 0.22,0 0.361,-0.131 0.361,-0.305 -0.015,-0.192 -0.213,-0.388 -0.58,-0.388 -0.083,0 -0.189,0.01 -0.305,0.03 -0.199,-0.277 -0.36,-0.527 -0.36,-0.884 0,-0.67 0.802,-1.193 1.611,-1.193 0.046,0 0.089,0.002 0.135,0.005 0.161,0.543 0.501,0.899 0.775,1.247 -0.328,0.119 -0.692,0.429 -0.692,0.571 0.041,0.024 0.667,-0.174 0.732,-0.191 0.014,-0.004 0.027,-0.004 0.042,0 0.076,0.023 0.14,0.134 0.14,0.145 -0.068,0.012 -0.46,0.063 -0.728,0.16 -0.204,0.075 -0.307,0.21 -0.307,0.261 0.065,0.011 0.313,-0.119 0.678,-0.119 0.135,0 0.161,0.005 0.295,0.021 -0.094,0.224 -0.27,0.414 -0.47,0.414 -0.08,0 -0.255,-0.049 -0.401,-0.123 -0.102,0.158 -0.192,0.366 -0.192,0.48 0,0.135 0.134,0.292 0.508,0.292 0.105,0 0.203,-0.009 0.293,-0.026 0.074,-0.014 0.136,-0.03 0.201,-0.056 -0.005,0.009 -0.009,0.028 -0.009,0.047 0,0.052 0.048,0.106 0.224,0.106 0.309,0 0.624,-0.1 1.012,-0.1 0.101,0 0.168,0.003 0.227,0.028 -0.026,-0.078 -0.135,-0.192 -0.234,-0.284 0.062,-0.084 0.221,-0.287 0.221,-0.615 0,-0.528 -0.347,-0.963 -0.347,-1.496 0,-0.317 0.244,-0.596 0.317,-0.762"
             style="fill:#231f20;fill-opacity:1;fill-rule:evenodd;stroke:none"
             id="path64" />
        </g>
        <g
           id="g66"
           transform="translate(44.452103,48.911896)">
          <path
             inkscape:connector-curvature="0"
             d="M 0,0 1.273,0 C 1.8,0 2.178,-0.189 2.384,-0.631 2.551,-0.98 2.568,-1.805 2.568,-1.937 2.568,-2.82 2.488,-3.33 2.316,-3.605 2.092,-3.961 1.674,-4.138 0.951,-4.138 L 0,-4.138 0,0 z m 0.528,-3.68 0.498,0 c 0.734,0 1.004,0.275 1.004,1.238 l 0,0.837 c 0,0.837 -0.259,1.146 -0.809,1.146 l -0.693,0 0,-3.221 z"
             style="fill:#231f20;fill-opacity:1;fill-rule:nonzero;stroke:none"
             id="path68" />
        </g>
        <g
           id="g70"
           transform="translate(48.057007,46.069)">
          <path
             inkscape:connector-curvature="0"
             d="m 0,0 c 0,-0.808 0.219,-0.969 0.585,-0.969 0.321,0 0.488,0.258 0.504,0.551 l 0.517,0 C 1.599,-1.06 1.204,-1.353 0.597,-1.353 c -0.614,0 -1.101,0.184 -1.101,1.462 0,0.848 0.098,1.548 1.101,1.548 0.825,0 1.031,-0.453 1.031,-1.41 L 1.628,0 0,0 z M 1.13,0.355 C 1.13,1.198 0.894,1.301 0.55,1.301 0.253,1.301 0.007,1.158 0,0.355 l 1.13,0 z"
             style="fill:#231f20;fill-opacity:1;fill-rule:nonzero;stroke:none"
             id="path72" />
        </g>
        <g
           id="g74"
           transform="translate(50.751602,47.232407)">
          <path
             inkscape:connector-curvature="0"
             d="m 0,0 0.011,0 c 0.196,0.441 0.435,0.493 0.894,0.493 l 0,-0.487 C 0.865,0.011 0.82,0.017 0.78,0.023 0.739,0.029 0.698,0.035 0.653,0.035 0.132,0.035 0,-0.361 0,-0.751 l 0,-1.708 -0.47,0 0,2.894 0.47,0 L 0,0 z"
             style="fill:#231f20;fill-opacity:1;fill-rule:nonzero;stroke:none"
             id="path76" />
        </g>
        <g
           id="g78"
           transform="translate(52.986496,44.773697)">
          <path
             inkscape:connector-curvature="0"
             d="m 0,0 0,4.138 1.347,0 c 0.573,0 0.768,-0.195 0.923,-0.424 0.143,-0.223 0.166,-0.47 0.166,-0.55 0,-0.516 -0.178,-0.86 -0.711,-0.98 l 0,-0.029 C 2.316,2.086 2.573,1.731 2.573,1.163 2.573,0.103 1.8,0 1.33,0 L 0,0 z m 0.527,2.396 0.768,0 c 0.413,0.005 0.613,0.258 0.613,0.659 0,0.344 -0.194,0.624 -0.635,0.624 l -0.746,0 0,-1.283 z m 0,-1.938 0.746,0 c 0.561,0 0.762,0.402 0.762,0.705 0,0.659 -0.408,0.774 -0.946,0.774 l -0.562,0 0,-1.479 z"
             style="fill:#231f20;fill-opacity:1;fill-rule:nonzero;stroke:none"
             id="path80" />
        </g>
        <g
           id="g82"
           transform="translate(56.597305,46.069)">
          <path
             inkscape:connector-curvature="0"
             d="m 0,0 c 0,-0.808 0.218,-0.969 0.584,-0.969 0.322,0 0.488,0.258 0.505,0.551 l 0.516,0 C 1.599,-1.06 1.203,-1.353 0.596,-1.353 c -0.613,0 -1.1,0.184 -1.1,1.462 0,0.848 0.097,1.548 1.1,1.548 0.825,0 1.032,-0.453 1.032,-1.41 L 1.628,0 0,0 z M 1.129,0.355 C 1.129,1.198 0.894,1.301 0.55,1.301 0.253,1.301 0.006,1.158 0,0.355 l 1.129,0 z"
             style="fill:#231f20;fill-opacity:1;fill-rule:nonzero;stroke:none"
             id="path84" />
        </g>
        <g
           id="g86"
           transform="translate(60.3853,45.1922)">
          <path
             inkscape:connector-curvature="0"
             d="m 0,0 -0.011,0 c -0.144,-0.332 -0.367,-0.476 -0.729,-0.476 -0.613,0 -0.79,0.396 -0.79,0.952 0,0.877 0.86,0.917 1.519,0.899 0.011,0.384 0.017,0.803 -0.487,0.803 -0.316,0 -0.481,-0.212 -0.453,-0.516 l -0.51,0 c 0.023,0.647 0.367,0.871 0.98,0.871 0.745,0 0.939,-0.384 0.939,-0.871 l 0,-1.393 c 0,-0.229 0.024,-0.464 0.058,-0.687 L 0,-0.418 0,0 z m -1.059,0.441 c 0,-0.28 0.137,-0.533 0.451,-0.533 0.287,0 0.643,0.178 0.597,1.112 -0.447,-0.006 -1.048,0.034 -1.048,-0.579"
             style="fill:#231f20;fill-opacity:1;fill-rule:nonzero;stroke:none"
             id="path88" />
        </g>
        <g
           id="g90"
           transform="translate(63.130707,47.667892)">
          <path
             inkscape:connector-curvature="0"
             d="m 0,0 0.47,0 0,-2.292 c 0,-0.201 0.012,-0.402 0.029,-0.602 l -0.499,0 0,0.349 -0.017,0 c -0.155,-0.263 -0.429,-0.406 -0.733,-0.406 -0.504,0 -0.78,0.252 -0.78,0.744 l 0,2.207 0.47,0 0,-2.006 c 0,-0.349 0.16,-0.584 0.494,-0.584 0.251,0 0.566,0.189 0.566,0.67 L 0,0 z"
             style="fill:#231f20;fill-opacity:1;fill-rule:nonzero;stroke:none"
             id="path92" />
        </g>
        <g
           id="g94"
           transform="translate(64.472595,47.667892)">
          <path
             inkscape:connector-curvature="0"
             d="m 0,0 0,0.562 c 0,0.584 0.412,0.699 0.83,0.699 0.098,0 0.156,-0.006 0.224,-0.017 l 0,-0.338 C 0.556,0.94 0.469,0.728 0.469,0.493 l 0,-0.493 0.585,0 0,-0.355 -0.585,0 0,-2.539 -0.469,0 0,2.539 -0.448,0 0,0.355 L 0,0 z"
             style="fill:#231f20;fill-opacity:1;fill-rule:nonzero;stroke:none"
             id="path96" />
        </g>
        <g
           id="g98"
           transform="translate(66.106506,47.667892)">
          <path
             inkscape:connector-curvature="0"
             d="m 0,0 0,0.556 0.469,0.212 0,-0.768 0.63,0 0,-0.355 -0.63,0 0,-1.771 c 0,-0.183 0,-0.419 0.431,-0.419 0.034,0 0.108,0.012 0.211,0.023 l 0,-0.361 C 0.957,-2.894 0.802,-2.929 0.646,-2.929 0.2,-2.929 0,-2.745 0,-2.413 l 0,2.058 -0.476,0 0,0.355 L 0,0 z"
             style="fill:#231f20;fill-opacity:1;fill-rule:nonzero;stroke:none"
             id="path100" />
        </g>
        <g
           id="g102"
           transform="translate(68.186706,47.232407)">
          <path
             inkscape:connector-curvature="0"
             d="m 0,0 0.011,0 c 0.196,0.441 0.435,0.493 0.894,0.493 l 0,-0.487 C 0.865,0.011 0.82,0.017 0.778,0.023 0.738,0.029 0.698,0.035 0.653,0.035 0.131,0.035 0,-0.361 0,-0.751 l 0,-1.708 -0.47,0 0,2.894 0.47,0 L 0,0 z"
             style="fill:#231f20;fill-opacity:1;fill-rule:nonzero;stroke:none"
             id="path104" />
        </g>
        <g
           id="g106"
           transform="translate(71.057297,45.1922)">
          <path
             inkscape:connector-curvature="0"
             d="m 0,0 -0.011,0 c -0.144,-0.332 -0.367,-0.476 -0.728,-0.476 -0.614,0 -0.791,0.396 -0.791,0.952 0,0.877 0.86,0.917 1.519,0.899 C 0,1.759 0.007,2.178 -0.498,2.178 -0.813,2.178 -0.98,1.966 -0.951,1.662 l -0.51,0 c 0.023,0.647 0.367,0.871 0.98,0.871 0.745,0 0.939,-0.384 0.939,-0.871 l 0,-1.393 c 0,-0.229 0.024,-0.464 0.058,-0.687 L 0,-0.418 0,0 z m -1.06,0.441 c 0,-0.28 0.138,-0.533 0.453,-0.533 0.286,0 0.642,0.178 0.596,1.112 C -0.458,1.014 -1.06,1.054 -1.06,0.441"
             style="fill:#231f20;fill-opacity:1;fill-rule:nonzero;stroke:none"
             id="path108" />
        </g>
        <g
           id="g110"
           transform="translate(73.842499,47.667892)">
          <path
             inkscape:connector-curvature="0"
             d="m 0,0 0.47,0 0,-3.187 c 0,-0.647 -0.429,-0.802 -1.066,-0.802 -0.481,0 -0.917,0.241 -0.877,0.774 l 0.528,0 c 0.006,-0.27 0.183,-0.418 0.441,-0.418 0.327,0 0.504,0.2 0.504,0.498 l 0,0.602 -0.016,0 c -0.121,-0.229 -0.385,-0.361 -0.637,-0.361 -0.785,0 -0.94,0.676 -0.94,1.536 0,1.33 0.671,1.416 0.905,1.416 0.304,0 0.545,-0.132 0.677,-0.413 L 0,-0.355 0,0 z m -0.55,-0.332 c -0.532,0 -0.549,-0.642 -0.549,-1.026 0,-0.929 0.211,-1.146 0.561,-1.146 0.567,0 0.55,0.67 0.55,1.071 0,0.43 0.029,1.101 -0.562,1.101"
             style="fill:#231f20;fill-opacity:1;fill-rule:nonzero;stroke:none"
             id="path112" />
        </g>
        <g
           id="g114"
           transform="translate(75.167206,47.667892)">
          <path
             inkscape:connector-curvature="0"
             d="m 0,0 0,0.556 0.47,0.212 0,-0.768 0.631,0 0,-0.355 -0.631,0 0,-1.771 c 0,-0.183 0,-0.419 0.43,-0.419 0.034,0 0.109,0.012 0.212,0.023 l 0,-0.361 C 0.957,-2.894 0.802,-2.929 0.648,-2.929 0.201,-2.929 0,-2.745 0,-2.413 l 0,2.058 -0.476,0 0,0.355 L 0,0 z"
             style="fill:#231f20;fill-opacity:1;fill-rule:nonzero;stroke:none"
             id="path116" />
        </g>
        <g
           id="g118"
           transform="translate(77.218796,46.069)">
          <path
             inkscape:connector-curvature="0"
             d="m 0,0 c 0,-0.808 0.218,-0.969 0.584,-0.969 0.322,0 0.488,0.258 0.505,0.551 l 0.516,0 C 1.599,-1.06 1.204,-1.353 0.596,-1.353 c -0.613,0 -1.1,0.184 -1.1,1.462 0,0.848 0.097,1.548 1.1,1.548 0.825,0 1.032,-0.453 1.032,-1.41 L 1.628,0 0,0 z M 1.129,0.355 C 1.129,1.198 0.895,1.301 0.55,1.301 0.253,1.301 0.006,1.158 0,0.355 l 1.129,0 z"
             style="fill:#231f20;fill-opacity:1;fill-rule:nonzero;stroke:none"
             id="path120" />
        </g>
        <g
           id="g122"
           transform="translate(82.096405,48.911896)">
          <path
             inkscape:connector-curvature="0"
             d="m 0,0 0.47,0 0,-4.138 -0.47,0 0,0.344 -0.011,0 c -0.161,-0.27 -0.361,-0.402 -0.665,-0.402 -0.464,0 -0.935,0.184 -0.935,1.456 0,0.722 0.023,1.554 0.957,1.554 0.276,0 0.476,-0.121 0.637,-0.35 L 0,-1.536 0,0 z m -0.544,-1.57 c -0.505,0 -0.573,-0.402 -0.573,-1.176 0,-0.435 0,-1.066 0.59,-1.066 C 0,-3.812 0,-3.158 0,-2.574 0,-2.189 -0.023,-1.57 -0.544,-1.57"
             style="fill:#231f20;fill-opacity:1;fill-rule:nonzero;stroke:none"
             id="path124" />
        </g>
        <g
           id="g126"
           transform="translate(83.826797,46.069)">
          <path
             inkscape:connector-curvature="0"
             d="m 0,0 c 0,-0.808 0.217,-0.969 0.585,-0.969 0.32,0 0.486,0.258 0.504,0.551 l 0.516,0 C 1.599,-1.06 1.203,-1.353 0.596,-1.353 c -0.613,0 -1.1,0.184 -1.1,1.462 0,0.848 0.098,1.548 1.1,1.548 0.826,0 1.031,-0.453 1.031,-1.41 L 1.627,0 0,0 z M 1.129,0.355 C 1.129,1.198 0.894,1.301 0.55,1.301 0.252,1.301 0.005,1.158 0,0.355 l 1.129,0 z"
             style="fill:#231f20;fill-opacity:1;fill-rule:nonzero;stroke:none"
             id="path128" />
        </g>
        <g
           id="g130"
           transform="translate(86.658707,47.232407)">
          <path
             inkscape:connector-curvature="0"
             d="m 0,0 0.011,0 c 0.195,0.441 0.435,0.493 0.894,0.493 l 0,-0.487 C 0.865,0.011 0.82,0.017 0.78,0.023 0.738,0.029 0.698,0.035 0.653,0.035 0.132,0.035 0,-0.361 0,-0.751 l 0,-1.708 -0.47,0 0,2.894 0.47,0 L 0,0 z"
             style="fill:#231f20;fill-opacity:1;fill-rule:nonzero;stroke:none"
             id="path132" />
        </g>
        <g
           id="g134"
           transform="translate(89.237396,44.773697)">
          <path
             inkscape:connector-curvature="0"
             d="m 0,0 0,4.138 1.347,0 c 0.573,0 0.768,-0.195 0.923,-0.424 0.143,-0.223 0.166,-0.47 0.166,-0.55 0,-0.516 -0.178,-0.86 -0.711,-0.98 l 0,-0.029 C 2.315,2.086 2.573,1.731 2.573,1.163 2.573,0.103 1.799,0 1.329,0 L 0,0 z m 0.528,2.396 0.767,0 c 0.412,0.005 0.613,0.258 0.613,0.659 0,0.344 -0.194,0.624 -0.635,0.624 l -0.745,0 0,-1.283 z m 0,-1.938 0.745,0 c 0.561,0 0.762,0.402 0.762,0.705 0,0.659 -0.408,0.774 -0.946,0.774 l -0.561,0 0,-1.479 z"
             style="fill:#231f20;fill-opacity:1;fill-rule:nonzero;stroke:none"
             id="path136" />
        </g>
        <g
           id="g138"
           transform="translate(94.029007,47.667892)">
          <path
             inkscape:connector-curvature="0"
             d="m 0,0 0.47,0 0,-2.292 c 0,-0.201 0.011,-0.402 0.028,-0.602 l -0.498,0 0,0.349 -0.017,0 c -0.155,-0.263 -0.43,-0.406 -0.734,-0.406 -0.504,0 -0.78,0.252 -0.78,0.744 l 0,2.207 0.471,0 0,-2.006 c 0,-0.349 0.16,-0.584 0.492,-0.584 0.252,0 0.568,0.189 0.568,0.67 L 0,0 z"
             style="fill:#231f20;fill-opacity:1;fill-rule:nonzero;stroke:none"
             id="path140" />
        </g>
        <g
           id="g142"
           transform="translate(96.854202,44.773697)">
          <path
             inkscape:connector-curvature="0"
             d="m 0,0 0,2.006 c 0,0.31 -0.109,0.562 -0.51,0.562 -0.516,0 -0.59,-0.459 -0.59,-0.854 l 0,-1.714 -0.47,0 0,2.293 c 0,0.2 -0.012,0.401 -0.029,0.601 l 0.499,0 0,-0.372 0.022,0 c 0.184,0.327 0.402,0.43 0.774,0.43 0.619,0 0.774,-0.373 0.774,-0.946 L 0.47,0 0,0 z"
             style="fill:#231f20;fill-opacity:1;fill-rule:nonzero;stroke:none"
             id="path144" />
        </g>
        <g
           id="g146"
           transform="translate(99.616806,48.911896)">
          <path
             inkscape:connector-curvature="0"
             d="m 0,0 0.47,0 0,-4.138 -0.47,0 0,0.344 -0.011,0 c -0.161,-0.27 -0.361,-0.402 -0.665,-0.402 -0.465,0 -0.934,0.184 -0.934,1.456 0,0.722 0.023,1.554 0.957,1.554 0.275,0 0.476,-0.121 0.636,-0.35 L 0,-1.536 0,0 z m -0.544,-1.57 c -0.505,0 -0.574,-0.402 -0.574,-1.176 0,-0.435 0,-1.066 0.59,-1.066 C 0,-3.812 0,-3.158 0,-2.574 0,-2.189 -0.023,-1.57 -0.544,-1.57"
             style="fill:#231f20;fill-opacity:1;fill-rule:nonzero;stroke:none"
             id="path148" />
        </g>
        <g
           id="g150"
           transform="translate(101.3479,46.069)">
          <path
             inkscape:connector-curvature="0"
             d="m 0,0 c 0,-0.808 0.217,-0.969 0.585,-0.969 0.32,0 0.486,0.258 0.504,0.551 l 0.516,0 C 1.599,-1.06 1.203,-1.353 0.596,-1.353 c -0.613,0 -1.1,0.184 -1.1,1.462 0,0.848 0.098,1.548 1.1,1.548 0.825,0 1.031,-0.453 1.031,-1.41 L 1.627,0 0,0 z M 1.129,0.355 C 1.129,1.198 0.894,1.301 0.55,1.301 0.252,1.301 0.005,1.158 0,0.355 l 1.129,0 z"
             style="fill:#231f20;fill-opacity:1;fill-rule:nonzero;stroke:none"
             id="path152" />
        </g>
        <g
           id="g154"
           transform="translate(104.5463,44.7164)">
          <path
             inkscape:connector-curvature="0"
             d="m 0,0 c -0.625,0 -1.014,0.275 -0.998,0.94 l 0.534,0 c 0,-0.166 0.006,-0.556 0.481,-0.556 0.28,0 0.499,0.143 0.499,0.442 0,0.515 -1.445,0.527 -1.445,1.392 0,0.304 0.184,0.791 0.997,0.791 0.516,0 0.958,-0.246 0.917,-0.819 l -0.521,0 c 0.005,0.303 -0.155,0.464 -0.453,0.464 -0.252,0 -0.447,-0.138 -0.447,-0.39 0,-0.51 1.445,-0.499 1.445,-1.381 C 1.009,0.247 0.573,0 0,0"
             style="fill:#231f20;fill-opacity:1;fill-rule:nonzero;stroke:none"
             id="path156" />
        </g>
        <g
           id="g158"
           transform="translate(106.8212,47.232407)">
          <path
             inkscape:connector-curvature="0"
             d="m 0,0 0.011,0 c 0.196,0.441 0.436,0.493 0.895,0.493 l 0,-0.487 C 0.865,0.011 0.82,0.017 0.78,0.023 0.74,0.029 0.7,0.035 0.653,0.035 0.132,0.035 0,-0.361 0,-0.751 l 0,-1.708 -0.47,0 0,2.894 0.47,0 L 0,0 z"
             style="fill:#231f20;fill-opacity:1;fill-rule:nonzero;stroke:none"
             id="path160" />
        </g>
        <g
           id="g162"
           transform="translate(108.6376,46.069)">
          <path
             inkscape:connector-curvature="0"
             d="m 0,0 c 0,-0.808 0.219,-0.969 0.585,-0.969 0.321,0 0.488,0.258 0.504,0.551 l 0.516,0 c -0.006,-0.642 -0.4,-0.935 -1.008,-0.935 -0.613,0 -1.101,0.184 -1.101,1.462 0,0.848 0.098,1.548 1.101,1.548 0.825,0 1.031,-0.453 1.031,-1.41 L 1.628,0 0,0 z M 1.129,0.355 C 1.129,1.198 0.894,1.301 0.55,1.301 0.253,1.301 0.007,1.158 0,0.355 l 1.129,0 z"
             style="fill:#231f20;fill-opacity:1;fill-rule:nonzero;stroke:none"
             id="path164" />
        </g>
        <g
           id="g166"
           transform="translate(112.4556,47.667892)">
          <path
             inkscape:connector-curvature="0"
             d="m 0,0 0.47,0 0,-3.187 c 0,-0.647 -0.43,-0.802 -1.066,-0.802 -0.482,0 -0.917,0.241 -0.877,0.774 l 0.527,0 c 0.005,-0.27 0.184,-0.418 0.441,-0.418 0.327,0 0.505,0.2 0.505,0.498 l 0,0.602 -0.017,0 c -0.121,-0.229 -0.385,-0.361 -0.637,-0.361 -0.785,0 -0.94,0.676 -0.94,1.536 0,1.33 0.67,1.416 0.906,1.416 0.304,0 0.544,-0.132 0.676,-0.413 L 0,-0.355 0,0 z m -0.55,-0.332 c -0.533,0 -0.551,-0.642 -0.551,-1.026 0,-0.929 0.212,-1.146 0.561,-1.146 0.568,0 0.551,0.67 0.551,1.071 0,0.43 0.029,1.101 -0.561,1.101"
             style="fill:#231f20;fill-opacity:1;fill-rule:nonzero;stroke:none"
             id="path168" />
        </g>
        <path
           inkscape:connector-curvature="0"
           d="m 113.739,48.912 0.526,0 0,-0.505 -0.526,0 0,0.505 z m 0.498,-4.138 -0.47,0 0,2.894 0.47,0 0,-2.894 z"
           style="fill:#231f20;fill-opacity:1;fill-rule:nonzero;stroke:none"
           id="path170" />
        <g
           id="g172"
           transform="translate(115.44679,46.069)">
          <path
             inkscape:connector-curvature="0"
             d="m 0,0 c 0,-0.808 0.218,-0.969 0.584,-0.969 0.322,0 0.487,0.258 0.505,0.551 l 0.516,0 C 1.599,-1.06 1.203,-1.353 0.596,-1.353 c -0.614,0 -1.1,0.184 -1.1,1.462 0,0.848 0.097,1.548 1.1,1.548 0.825,0 1.032,-0.453 1.032,-1.41 L 1.628,0 0,0 z M 1.129,0.355 C 1.129,1.198 0.894,1.301 0.55,1.301 0.252,1.301 0.006,1.158 0,0.355 l 1.129,0 z"
             style="fill:#231f20;fill-opacity:1;fill-rule:nonzero;stroke:none"
             id="path174" />
        </g>
        <g
           id="g176"
           transform="translate(118.278,47.232407)">
          <path
             inkscape:connector-curvature="0"
             d="m 0,0 0.011,0 c 0.196,0.441 0.436,0.493 0.894,0.493 l 0,-0.487 C 0.865,0.011 0.82,0.017 0.78,0.023 0.74,0.029 0.699,0.035 0.653,0.035 0.132,0.035 0,-0.361 0,-0.751 l 0,-1.708 -0.47,0 0,2.894 0.47,0 L 0,0 z"
             style="fill:#231f20;fill-opacity:1;fill-rule:nonzero;stroke:none"
             id="path178" />
        </g>
        <g
           id="g180"
           transform="translate(121.27521,47.667892)">
          <path
             inkscape:connector-curvature="0"
             d="m 0,0 0.47,0 0,-2.292 c 0,-0.201 0.012,-0.402 0.028,-0.602 l -0.498,0 0,0.349 -0.017,0 c -0.155,-0.263 -0.429,-0.406 -0.733,-0.406 -0.505,0 -0.78,0.252 -0.78,0.744 l 0,2.207 0.471,0 0,-2.006 c 0,-0.349 0.159,-0.584 0.492,-0.584 0.253,0 0.567,0.189 0.567,0.67 L 0,0 z"
             style="fill:#231f20;fill-opacity:1;fill-rule:nonzero;stroke:none"
             id="path182" />
        </g>
        <g
           id="g184"
           transform="translate(124.1584,44.773697)">
          <path
             inkscape:connector-curvature="0"
             d="m 0,0 0,2.006 c 0,0.31 -0.109,0.562 -0.51,0.562 -0.515,0 -0.59,-0.459 -0.59,-0.854 l 0,-1.714 -0.471,0 0,2.293 c 0,0.2 -0.01,0.401 -0.028,0.601 l 0.499,0 0,-0.372 0.023,0 c 0.183,0.327 0.401,0.43 0.773,0.43 0.619,0 0.774,-0.373 0.774,-0.946 L 0.47,0 0,0 z"
             style="fill:#231f20;fill-opacity:1;fill-rule:nonzero;stroke:none"
             id="path186" />
        </g>
        <g
           id="g188"
           transform="translate(126.979,47.667892)">
          <path
             inkscape:connector-curvature="0"
             d="m 0,0 0.469,0 0,-3.187 c 0,-0.647 -0.429,-0.802 -1.066,-0.802 -0.481,0 -0.917,0.241 -0.877,0.774 l 0.528,0 c 0.005,-0.27 0.182,-0.418 0.441,-0.418 0.326,0 0.505,0.2 0.505,0.498 l 0,0.602 -0.018,0 c -0.12,-0.229 -0.384,-0.361 -0.636,-0.361 -0.785,0 -0.94,0.676 -0.94,1.536 0,1.33 0.67,1.416 0.906,1.416 0.303,0 0.544,-0.132 0.676,-0.413 L 0,-0.355 0,0 z m -0.55,-0.332 c -0.533,0 -0.551,-0.642 -0.551,-1.026 0,-0.929 0.212,-1.146 0.561,-1.146 0.568,0 0.551,0.67 0.551,1.071 0,0.43 0.029,1.101 -0.561,1.101"
             style="fill:#231f20;fill-opacity:1;fill-rule:nonzero;stroke:none"
             id="path190" />
        </g>
        <g
           id="g192"
           transform="translate(44.761307,41.527298)">
          <path
             inkscape:connector-curvature="0"
             d="m 0,0 0,0.562 c 0,0.584 0.413,0.699 0.832,0.699 0.097,0 0.154,-0.006 0.223,-0.018 l 0,-0.337 C 0.556,0.939 0.47,0.728 0.47,0.493 l 0,-0.493 0.585,0 0,-0.356 -0.585,0 0,-2.539 -0.47,0 0,2.539 -0.446,0 0,0.356 L 0,0 z"
             style="fill:#231f20;fill-opacity:1;fill-rule:nonzero;stroke:none"
             id="path194" />
        </g>
        <g
           id="g196"
           transform="translate(47.862396,41.527298)">
          <path
             inkscape:connector-curvature="0"
             d="m 0,0 0.47,0 0,-2.293 c 0,-0.2 0.011,-0.401 0.028,-0.602 l -0.498,0 0,0.35 -0.017,0 c -0.155,-0.264 -0.429,-0.406 -0.733,-0.406 -0.505,0 -0.78,0.251 -0.78,0.744 l 0,2.207 0.47,0 0,-2.006 c 0,-0.35 0.16,-0.585 0.493,-0.585 0.253,0 0.567,0.189 0.567,0.671 L 0,0 z m -0.762,0.487 -0.538,0 0,0.597 0.538,0 0,-0.597 z m 1.009,0 -0.538,0 0,0.597 0.538,0 0,-0.597 z"
             style="fill:#231f20;fill-opacity:1;fill-rule:nonzero;stroke:none"
             id="path198" />
        </g>
        <g
           id="g200"
           transform="translate(49.650803,41.091599)">
          <path
             inkscape:connector-curvature="0"
             d="m 0,0 0.012,0 c 0.195,0.441 0.435,0.493 0.894,0.493 l 0,-0.487 C 0.866,0.011 0.82,0.017 0.78,0.023 0.74,0.029 0.7,0.035 0.653,0.035 0.132,0.035 0,-0.361 0,-0.751 l 0,-1.708 -0.47,0 0,2.895 0.47,0 L 0,0 z"
             style="fill:#231f20;fill-opacity:1;fill-rule:nonzero;stroke:none"
             id="path202" />
        </g>
        <g
           id="g204"
           transform="translate(52.1548,38.632797)">
          <path
             inkscape:connector-curvature="0"
             d="m 0,0 0,4.138 0.528,0 0,-1.817 0.017,0 1.445,1.817 0.595,0 L 1.083,2.27 2.671,0 1.995,0 0.545,2.161 0.528,2.161 0.528,0 0,0 z"
             style="fill:#231f20;fill-opacity:1;fill-rule:nonzero;stroke:none"
             id="path206" />
        </g>
        <g
           id="g208"
           transform="translate(56.683304,41.527298)">
          <path
             inkscape:connector-curvature="0"
             d="m 0,0 0.47,0 0,-2.293 c 0,-0.2 0.011,-0.401 0.028,-0.602 l -0.498,0 0,0.35 -0.017,0 c -0.155,-0.264 -0.43,-0.406 -0.734,-0.406 -0.504,0 -0.779,0.251 -0.779,0.744 l 0,2.207 0.47,0 0,-2.006 c 0,-0.35 0.16,-0.585 0.492,-0.585 0.252,0 0.568,0.189 0.568,0.671 L 0,0 z"
             style="fill:#231f20;fill-opacity:1;fill-rule:nonzero;stroke:none"
             id="path210" />
        </g>
        <path
           inkscape:connector-curvature="0"
           d="m 58.442,38.633 -0.469,0 0,4.138 0.469,0 0,-4.138 z"
           style="fill:#231f20;fill-opacity:1;fill-rule:nonzero;stroke:none"
           id="path212" />
        <g
           id="g214"
           transform="translate(59.359894,41.527298)">
          <path
             inkscape:connector-curvature="0"
             d="M 0,0 0,0.556 0.47,0.768 0.47,0 1.1,0 l 0,-0.356 -0.63,0 0,-1.77 c 0,-0.184 0,-0.419 0.43,-0.419 0.034,0 0.108,0.011 0.212,0.023 l 0,-0.361 C 0.957,-2.895 0.802,-2.929 0.648,-2.929 0.201,-2.929 0,-2.746 0,-2.413 l 0,2.057 -0.476,0 0,0.356 L 0,0 z"
             style="fill:#231f20;fill-opacity:1;fill-rule:nonzero;stroke:none"
             id="path216" />
        </g>
        <g
           id="g218"
           transform="translate(62.432297,41.527298)">
          <path
             inkscape:connector-curvature="0"
             d="m 0,0 0.469,0 0,-2.293 c 0,-0.2 0.012,-0.401 0.029,-0.602 l -0.498,0 0,0.35 -0.017,0 c -0.155,-0.264 -0.431,-0.406 -0.735,-0.406 -0.503,0 -0.779,0.251 -0.779,0.744 l 0,2.207 0.47,0 0,-2.006 c 0,-0.35 0.16,-0.585 0.493,-0.585 0.252,0 0.568,0.189 0.568,0.671 L 0,0 z"
             style="fill:#231f20;fill-opacity:1;fill-rule:nonzero;stroke:none"
             id="path220" />
        </g>
        <g
           id="g222"
           transform="translate(64.243393,41.091599)">
          <path
             inkscape:connector-curvature="0"
             d="m 0,0 0.011,0 c 0.195,0.441 0.435,0.493 0.894,0.493 l 0,-0.487 C 0.865,0.011 0.82,0.017 0.78,0.023 0.74,0.029 0.698,0.035 0.653,0.035 0.132,0.035 0,-0.361 0,-0.751 l 0,-1.708 -0.47,0 0,2.895 0.47,0 L 0,0 z"
             style="fill:#231f20;fill-opacity:1;fill-rule:nonzero;stroke:none"
             id="path224" />
        </g>
        <g
           id="g226"
           transform="translate(68.311997,41.527298)">
          <path
             inkscape:connector-curvature="0"
             d="m 0,0 0.47,0 0,-2.293 c 0,-0.2 0.011,-0.401 0.028,-0.602 l -0.498,0 0,0.35 -0.017,0 c -0.155,-0.264 -0.429,-0.406 -0.733,-0.406 -0.505,0 -0.78,0.251 -0.78,0.744 l 0,2.207 0.47,0 0,-2.006 c 0,-0.35 0.161,-0.585 0.492,-0.585 0.254,0 0.568,0.189 0.568,0.671 L 0,0 z"
             style="fill:#231f20;fill-opacity:1;fill-rule:nonzero;stroke:none"
             id="path228" />
        </g>
        <g
           id="g230"
           transform="translate(71.137894,38.632797)">
          <path
             inkscape:connector-curvature="0"
             d="m 0,0 0,2.006 c 0,0.31 -0.109,0.562 -0.51,0.562 -0.515,0 -0.59,-0.459 -0.59,-0.854 l 0,-1.714 -0.47,0 0,2.293 c 0,0.2 -0.013,0.401 -0.029,0.602 l 0.499,0 0,-0.373 0.023,0 c 0.184,0.327 0.401,0.43 0.773,0.43 0.619,0 0.774,-0.373 0.774,-0.946 L 0.47,0 0,0 z"
             style="fill:#231f20;fill-opacity:1;fill-rule:nonzero;stroke:none"
             id="path232" />
        </g>
        <g
           id="g234"
           transform="translate(73.900497,42.770706)">
          <path
             inkscape:connector-curvature="0"
             d="m 0,0 0.47,0 0,-4.138 -0.47,0 0,0.344 -0.011,0 c -0.161,-0.269 -0.361,-0.401 -0.665,-0.401 -0.465,0 -0.935,0.183 -0.935,1.455 0,0.723 0.023,1.554 0.957,1.554 0.276,0 0.476,-0.12 0.636,-0.35 L 0,-1.536 0,0 z m -0.544,-1.57 c -0.505,0 -0.573,-0.402 -0.573,-1.175 0,-0.435 0,-1.066 0.59,-1.066 C 0,-3.811 0,-3.158 0,-2.573 0,-2.189 -0.023,-1.57 -0.544,-1.57"
             style="fill:#231f20;fill-opacity:1;fill-rule:nonzero;stroke:none"
             id="path236" />
        </g>
        <g
           id="g238"
           transform="translate(77.092895,38.632797)">
          <path
             inkscape:connector-curvature="0"
             d="m 0,0 -0.493,0 0,4.138 0.854,0 1.044,-3.473 0.01,0 1.056,3.473 0.87,0 0,-4.138 -0.526,0 0,3.679 -0.012,0 L 1.644,0 1.146,0 0.012,3.679 0,3.679 0,0 z"
             style="fill:#231f20;fill-opacity:1;fill-rule:nonzero;stroke:none"
             id="path240" />
        </g>
        <g
           id="g242"
           transform="translate(81.643906,39.928101)">
          <path
             inkscape:connector-curvature="0"
             d="m 0,0 c 0,-0.808 0.217,-0.968 0.584,-0.968 0.321,0 0.487,0.257 0.505,0.549 l 0.516,0 C 1.599,-1.06 1.203,-1.352 0.596,-1.352 c -0.613,0 -1.101,0.183 -1.101,1.461 0,0.848 0.098,1.547 1.101,1.547 0.825,0 1.031,-0.453 1.031,-1.409 L 1.627,0 0,0 z M 1.129,0.355 C 1.129,1.198 0.894,1.301 0.55,1.301 0.252,1.301 0.005,1.157 0,0.355 l 1.129,0 z"
             style="fill:#231f20;fill-opacity:1;fill-rule:nonzero;stroke:none"
             id="path244" />
        </g>
        <g
           id="g246"
           transform="translate(85.472595,42.770706)">
          <path
             inkscape:connector-curvature="0"
             d="m 0,0 0.469,0 0,-4.138 -0.469,0 0,0.344 -0.012,0 c -0.16,-0.269 -0.361,-0.401 -0.665,-0.401 -0.464,0 -0.934,0.183 -0.934,1.455 0,0.723 0.022,1.554 0.957,1.554 0.276,0 0.475,-0.12 0.637,-0.35 L 0,-1.536 0,0 z m -0.545,-1.57 c -0.504,0 -0.573,-0.402 -0.573,-1.175 0,-0.435 0,-1.066 0.59,-1.066 C 0,-3.811 0,-3.158 0,-2.573 0,-2.189 -0.024,-1.57 -0.545,-1.57"
             style="fill:#231f20;fill-opacity:1;fill-rule:nonzero;stroke:none"
             id="path248" />
        </g>
        <path
           inkscape:connector-curvature="0"
           d="m 86.761,42.771 0.528,0 0,-0.504 -0.528,0 0,0.504 z m 0.499,-4.138 -0.469,0 0,2.895 0.469,0 0,-2.895 z"
           style="fill:#231f20;fill-opacity:1;fill-rule:nonzero;stroke:none"
           id="path250" />
        <g
           id="g252"
           transform="translate(88.469803,39.928101)">
          <path
             inkscape:connector-curvature="0"
             d="m 0,0 c 0,-0.808 0.217,-0.968 0.585,-0.968 0.32,0 0.486,0.257 0.504,0.549 l 0.516,0 C 1.599,-1.06 1.203,-1.352 0.596,-1.352 c -0.613,0 -1.1,0.183 -1.1,1.461 0,0.848 0.098,1.547 1.1,1.547 0.825,0 1.031,-0.453 1.031,-1.409 L 1.627,0 0,0 z M 1.129,0.355 C 1.129,1.198 0.894,1.301 0.55,1.301 0.252,1.301 0.005,1.157 0,0.355 l 1.129,0 z"
             style="fill:#231f20;fill-opacity:1;fill-rule:nonzero;stroke:none"
             id="path254" />
        </g>
        <g
           id="g256"
           transform="translate(92.383804,38.632797)">
          <path
             inkscape:connector-curvature="0"
             d="m 0,0 0,2.006 c 0,0.31 -0.109,0.562 -0.51,0.562 -0.516,0 -0.59,-0.459 -0.59,-0.854 l 0,-1.714 -0.47,0 0,2.293 c 0,0.2 -0.012,0.401 -0.029,0.602 l 0.499,0 0,-0.373 0.023,0 c 0.183,0.327 0.401,0.43 0.773,0.43 0.62,0 0.774,-0.373 0.774,-0.946 L 0.47,0 0,0 z"
             style="fill:#231f20;fill-opacity:1;fill-rule:nonzero;stroke:none"
             id="path258" />
        </g>
      </g>
    </g>
  </g>
</svg>
