<svg viewBox="0 0 121 43" xmlns="http://www.w3.org/2000/svg" xmlns:xlink="http://www.w3.org/1999/xlink"><defs><path id="a" d="M.808.108h1.107v1.12H.808z"/><path id="c" d="M.8.108h1.108v1.12H.8z"/></defs><g fill="none" fill-rule="evenodd"><path d="M32.125 1.14l-9.938 23.778-.59 1.404 3.67 9.506h.794L39.368 4.29v23.445c0 1.942-.1 3.358-.301 4.25-.2.891-.63 1.544-1.287 1.957-.658.414-1.725.693-3.201.836v.98c1.268-.097 3.048-.145 5.342-.145 1.813 0 3.24.048 4.284.144v-.979c-1.075-.143-1.87-.418-2.383-.824-.513-.406-.862-1.03-1.047-1.874-.184-.843-.276-2.093-.276-3.748V6.32c0-1.226.092-2.117.276-2.674.185-.557.526-.939 1.023-1.146.497-.207 1.3-.335 2.407-.382V1.14c-1.043.095-2.471.143-4.284.143-3.047 0-5.646-.048-7.796-.143M2.45 1.14v.978c1.09.047 1.885.175 2.382.382.497.207.838.59 1.023 1.146.184.557.277 1.448.277 2.674v19.458c0 2.563-.016 4.493-.05 5.79-.031 1.298-.115 2.415-.252 3.354a14.2 14.2 0 0 1-.637 2.65c-.385 1.051-1.011 1.9-1.877 2.543-.74.55-1.601.865-2.586.946l-.003.99c2.165 0 4.053-.336 5.777-1.029 1.725-.692 3.149-1.639 4.272-2.84 1.122-1.203 1.908-2.567 2.358-4.095.353-1.194.58-2.627.686-4.298.104-1.67.156-3.636.156-5.897V6.32c0-1.226.092-2.117.277-2.674.184-.557.525-.939 1.022-1.146.497-.207 1.3-.335 2.406-.382V1.14c-1.828.095-4.411.143-7.748.143-3.384 0-5.88-.048-7.483-.143M72.287 3.294l.11-.112h1.108c2.104 0 2.658 1.008 2.658 2.911s-.554 2.91-2.658 2.91h-1.108l-.11-.111V3.294zm1.33 6.717c2.768 0 3.653-1.567 3.653-3.918s-.885-3.919-3.654-3.919H71.29l-.11.113v7.612l.11.112h2.326z" fill="#FFF"/><g transform="translate(63.727 .052)"><mask id="b" fill="#fff"><use xlink:href="#a"/></mask><path fill="#FFF" mask="url(#b)" d="M1.805 1.227l.11-.112V.22l-.11-.113H.918L.808.22v.895l.11.112z"/></g><path d="M68.773 13.482l-.11-.112h-.886l-.111.112v4.926c0 1.791 1.107 2.91 2.99 2.91 1.883 0 2.99-1.119 2.99-2.91v-4.926l-.11-.112h-.886l-.111.112v4.926c0 1.119-.554 1.903-1.883 1.903-1.33 0-1.883-.784-1.883-1.903v-4.926zM110.717 10.011l.11-.112v-.784l-.11-.112h-3.877l-.11-.112V6.652l.11-.112h3.655l.111-.112v-.783l-.111-.112h-3.655l-.11-.112V3.294l.11-.112h3.877l.11-.112v-.784l-.11-.112h-4.984l-.111.112V9.9l.111.112zM66.085 10.123c1.883 0 2.99-1.12 2.99-2.91V2.286l-.11-.113h-.887l-.11.113v4.925c0 1.12-.554 1.904-1.883 1.904s-1.883-.784-1.883-1.904V2.287l-.11-.113h-.887l-.11.113v4.925c0 1.791 1.107 2.911 2.99 2.911M92.664 10.123c1.883 0 2.88-1.12 3.102-2.463l-.112-.112h-.886l-.11.112c-.222.784-.775 1.456-1.994 1.456-1.66 0-2.547-1.232-2.547-3.023 0-1.79.886-3.023 2.547-3.023 1.107 0 1.772.56 1.994 1.344l.11.111h.886l.112-.11c-.222-1.345-1.33-2.353-3.102-2.353-2.325 0-3.654 1.68-3.654 4.031s1.33 4.03 3.654 4.03M98.423 10.011l.111-.112V6.652l.111-.112h3.655l.11.112V9.9l.111.112h.886l.111-.112V2.286l-.111-.112h-.886l-.111.112v3.135l-.11.112h-3.655l-.111-.112V2.286l-.111-.112h-.886l-.11.112V9.9l.11.112zM115.368 10.123c2.104 0 2.99-1.007 2.99-2.239 0-1.567-1.108-2.127-2.658-2.35-1.55-.225-2.104-.449-2.104-1.344 0-.672.553-1.12 1.55-1.12 1.44 0 1.883.448 1.883 1.344l.11.111h.886l.112-.11c0-1.68-1.219-2.353-2.88-2.353-1.993 0-2.769 1.12-2.769 2.128 0 1.343.997 2.015 2.547 2.24 1.551.222 2.215.446 2.215 1.454 0 .896-.775 1.232-1.772 1.232-1.329 0-2.104-.448-2.104-1.568l-.11-.112h-.886l-.112.112c0 1.68 1.22 2.575 3.102 2.575M84.801 10.123c2.104 0 2.991-1.007 2.991-2.239 0-1.567-1.108-2.127-2.658-2.35-1.551-.225-2.104-.449-2.104-1.344 0-.672.553-1.12 1.55-1.12 1.44 0 1.883.448 1.883 1.344l.11.111h.886l.112-.11c0-1.68-1.219-2.353-2.88-2.353-1.994 0-2.769 1.12-2.769 2.128 0 1.343.996 2.015 2.547 2.24 1.551.222 2.215.446 2.215 1.454 0 .896-.775 1.232-1.772 1.232-1.329 0-2.104-.448-2.104-1.568l-.111-.112h-.886l-.111.112c0 1.68 1.218 2.575 3.101 2.575M83.06 13.482v7.612l.11.113h4.984l.11-.113v-.783l-.11-.112h-3.876l-.111-.112v-2.239l.11-.112h3.656l.11-.112v-.784l-.11-.111h-3.655l-.111-.113v-2.127l.11-.111h3.877l.11-.112v-.784l-.11-.112H83.17zM79.929 10.011l.11-.112V2.286l-.11-.112h-.887l-.11.112V9.9l.11.112zM75.529 15.385c0 1.344.997 2.015 2.548 2.239 1.55.224 2.215.448 2.215 1.455 0 .896-.776 1.232-1.773 1.232-1.33 0-2.104-.448-2.104-1.567l-.111-.112h-.885l-.112.112c0 1.679 1.219 2.575 3.102 2.575 2.103 0 2.99-1.008 2.99-2.24 0-1.567-1.107-2.127-2.658-2.35-1.551-.224-2.105-.448-2.105-1.344 0-.672.554-1.12 1.55-1.12 1.44 0 1.884.448 1.884 1.344l.11.112h.887l.11-.112c0-1.68-1.217-2.351-2.88-2.351-1.993 0-2.768 1.12-2.768 2.127" fill="#FFF"/><g transform="translate(65.727 .052)"><mask id="d" fill="#fff"><use xlink:href="#c"/></mask><path fill="#FFF" mask="url(#d)" d="M1.798 1.227l.11-.112V.22l-.11-.113H.912L.8.22v.895l.11.112z"/></g><path d="M96.128 18.408v-4.926l-.11-.112h-.887l-.11.112v4.926c0 1.12-.555 1.903-1.883 1.903-1.329 0-1.883-.783-1.883-1.903v-4.926l-.11-.112h-.887l-.11.112v4.926c0 1.79 1.107 2.91 2.99 2.91 1.882 0 2.99-1.12 2.99-2.91M105.32 24.565l-.11.112v4.926c0 1.455-.776 2.351-2.215 2.351-1.33 0-2.216-.896-2.216-2.351v-4.926l-.11-.112h-.444l-.11.112v4.926c0 1.792 1.107 2.911 2.88 2.911 1.77 0 2.879-1.119 2.879-2.911v-4.926l-.111-.112h-.443zM93.802 24.565l-.111.112v7.613l.11.112h.443l.112-.112v-3.359l.11-.112h3.655l.11-.111v-.337l-.11-.111h-3.655l-.11-.112v-2.911l.11-.112h3.877l.11-.112v-.336l-.11-.112zM60.99 7.884V2.286l-.11-.112h-.887l-.11.112v5.598c0 .896-.443 1.231-1.219 1.231-.997 0-1.107-.67-1.107-1.119v-.224l-.11-.112h-.887l-.11.112v.224c0 .784.332 2.127 2.214 2.127 1.661 0 2.326-1.008 2.326-2.239M111.3 28.26h-2.547l-.111-.112v-2.911l.111-.112h2.657c.997 0 1.662.336 1.662 1.568 0 1.23-.665 1.567-1.772 1.567m2.437-1.567c0-1.456-.776-2.128-2.437-2.128h-3.212l-.11.112v7.613l.11.112h.443l.111-.112v-3.36l.111-.11h1.882l.222.11 2.104 3.36.222.112h.221l.111-.112v-.336l-1.883-3.023v-.111c.775 0 2.105-.336 2.105-2.127M120.492 24.565h-5.759l-.11.112v.336l.11.112h2.437l.11.112v7.053l.11.112h.444l.111-.112v-7.053l.11-.112h2.437l.11-.112v-.336zM104.988 13.37l-.11.112-2.548 6.269h-.111l-2.546-6.27-.112-.111h-1.218l-.111.112v7.613l.11.112h.887l.11-.112V15.72h.112l2.215 5.374.11.112h.997l.11-.112 2.216-5.374h.11v5.374l.112.112h.886l.11-.112v-7.613l-.11-.112zM67.222 28.26h-2.547l-.11-.112v-2.911l.11-.112h2.658c.996 0 1.66.336 1.66 1.568 0 1.23-.664 1.567-1.771 1.567m2.437-1.567c0-1.456-.775-2.128-2.437-2.128H64.01l-.111.112v7.613l.11.112h.443l.112-.112v-3.36l.11-.11h1.883l.222.11 2.104 3.36.22.112h.222l.112-.112v-.336l-1.883-3.023v-.111c.774 0 2.104-.336 2.104-2.127M57.587 24.565l-.11.112v7.613l.11.112h.443l.111-.112v-3.359l.111-.112h3.654l.111-.111v-.337l-.11-.111h-3.655l-.11-.112v-2.911l.11-.112h3.876l.11-.112v-.336l-.11-.112zM58.473 21.207l.11-.112V15.72h.111l2.215 5.374.111.112h.996l.112-.112 2.215-5.374h.11v5.374l.111.112h.886l.11-.112v-7.613l-.11-.112h-1.218l-.11.112-2.548 6.269h-.11l-2.548-6.27-.11-.111h-1.219l-.11.112v7.613l.11.112zM83.946 24.565l-.111.112v6.605h-.111l-4.43-6.605-.221-.112h-.554l-.11.112v7.613l.11.112h.443l.11-.112v-6.605h.11l4.43 6.605.223.112h.553l.112-.112v-7.613l-.112-.112zM75.197 29.603h-2.77l-.11-.112 1.44-3.918h.11l1.44 3.918-.11.112zm-1.108-5.038h-.553l-.111.112-2.77 7.277v.336l.11.112h.334l.11-.112.776-2.016.222-.11h3.212l.22.11.776 2.016.11.112h.333l.11-.112v-.336L74.2 24.677l-.111-.112zM89.15 27.924l2.88-2.911v-.336l-.11-.112h-.222l-.221.112-4.098 4.143h-.111v-4.143l-.111-.112h-.443l-.111.112v7.613l.11.112h.444l.11-.112v-2.351l.112-.224 1.218-1.231h.11l2.99 3.806.223.112h.22l.112-.112v-.336l-3.101-3.918z" fill="#FFF"/></g></svg>
