<svg viewBox="0 0 128 41" xmlns="http://www.w3.org/2000/svg" xmlns:xlink="http://www.w3.org/1999/xlink"><defs><path id="a" d="M.41.054h16.78V41H.41z"/></defs><g fill="none" fill-rule="evenodd"><path d="M58.344 18.034v-5.597l-.111-.111h-.896l-.111.11v5.598c0 .895-.447 1.23-1.231 1.23-1.006 0-1.118-.67-1.118-1.118v-.224l-.112-.112h-.895l-.112.112v.224c0 .783.336 2.126 2.237 2.126 1.678 0 2.349-1.007 2.349-2.238M54.907 23.518l-.112.112v7.611l.112.112h.447l.112-.112v-3.358l.112-.112h3.691l.112-.112v-.336l-.112-.112h-3.691l-.112-.111v-2.911l.112-.111h3.915l.111-.112v-.336l-.111-.112zM66.51 17.362v-4.925l-.111-.112h-.896l-.111.112v4.925c0 1.119-.56 1.903-1.903 1.903-1.341 0-1.901-.784-1.901-1.903v-4.925l-.111-.112h-.896l-.111.112v4.925c0 1.79 1.118 2.91 3.019 2.91 1.903 0 3.02-1.12 3.02-2.91M110.47 20.272c2.125 0 3.02-1.007 3.02-2.238 0-1.568-1.118-2.127-2.684-2.351-1.566-.224-2.126-.448-2.126-1.343 0-.672.56-1.12 1.566-1.12 1.454 0 1.902.448 1.902 1.344l.112.11h.895l.112-.11c0-1.68-1.231-2.351-2.908-2.351-2.014 0-2.797 1.12-2.797 2.127 0 1.343 1.007 2.015 2.573 2.239 1.565.223 2.237.447 2.237 1.455 0 .895-.783 1.23-1.79 1.23-1.342 0-2.125-.447-2.125-1.566l-.112-.112h-.895l-.112.112c0 1.678 1.23 2.574 3.132 2.574M64.638 27.211h-2.573l-.112-.112v-2.91l.112-.112h2.684c1.007 0 1.678.336 1.678 1.567 0 1.231-.67 1.567-1.789 1.567m2.461-1.567c0-1.455-.783-2.126-2.46-2.126h-3.245l-.112.111v7.611l.112.113h.447l.112-.113v-3.357l.112-.112h1.901l.225.112 2.125 3.357.223.113h.224l.112-.113v-.335l-1.902-3.022v-.112c.783 0 2.126-.336 2.126-2.127M96.966 8.967l.11-.112V3.483h.114l2.237 5.372.11.112h1.008l.112-.112 2.237-5.372h.112v5.372l.112.112h.895l.11-.112v-7.61l-.11-.113h-1.231l-.112.112-2.572 6.268h-.112l-2.573-6.268-.112-.112H96.07l-.111.112v7.611l.11.112zM75.936 9.079c2.125 0 3.02-1.007 3.02-2.238 0-1.568-1.119-2.127-2.685-2.351-1.565-.224-2.125-.448-2.125-1.343 0-.672.56-1.119 1.565-1.119 1.455 0 1.903.447 1.903 1.343l.111.112h.896l.112-.112c0-1.679-1.232-2.351-2.909-2.351-2.014 0-2.797 1.12-2.797 2.127 0 1.343 1.008 2.015 2.573 2.239 1.566.223 2.237.447 2.237 1.455 0 .895-.783 1.231-1.79 1.231-1.34 0-2.125-.448-2.125-1.567l-.112-.112h-.895l-.11.112c0 1.678 1.23 2.574 3.131 2.574M85.78 8.967l.111-.112v-.784l-.112-.11h-3.915l-.11-.113V5.61l.11-.112h3.691l.113-.112v-.783l-.113-.112h-3.69l-.112-.112V2.251l.111-.112h3.915l.112-.11v-.785l-.112-.112h-5.033l-.113.112v7.611l.113.112zM68.106 9.079c1.901 0 3.02-1.119 3.02-2.91V1.244l-.112-.112h-.894l-.113.112v4.925c0 1.119-.559 1.903-1.9 1.903-1.344 0-1.903-.784-1.903-1.903V1.244l-.112-.112h-.894l-.113.112v4.925c0 1.791 1.12 2.91 3.021 2.91M77.695 13.332h3.915l.112-.112v-.784l-.112-.11h-5.033l-.112.11v7.612l.112.112h5.033l.112-.112v-.784l-.112-.112h-3.915l-.11-.112v-2.238l.11-.112h3.691l.113-.112v-.784l-.113-.11h-3.69l-.112-.114v-2.126zM55.802 8.967l.11-.112V3.483h.114l2.237 5.372.11.112h1.008l.112-.112 2.238-5.372h.11v5.372l.113.112h.895l.112-.112v-7.61l-.112-.113h-1.231l-.111.112-2.573 6.268h-.111l-2.574-6.268-.111-.112h-1.231l-.112.112v7.611l.112.112zM103.117 23.518l-.112.112v4.925c0 1.455-.783 2.35-2.237 2.35-1.342 0-2.237-.895-2.237-2.35V23.63l-.112-.112h-.448l-.111.112v4.925c0 1.791 1.118 2.91 2.908 2.91 1.789 0 2.909-1.119 2.909-2.91V23.63l-.113-.112h-.447zM104.317 17.25h-2.349l-.112-.112 1.231-3.134h.112l1.23 3.134-.112.112zm2.126 2.798v-.783l-2.685-6.828-.112-.112h-1.007l-.11.112-2.686 6.828v.783l.112.112h.671l.112-.112.671-1.68.223-.111h3.021l.224.112.67 1.679.113.112h.671l.112-.112zM72.692 28.555h-2.797l-.11-.112 1.453-3.917h.111l1.454 3.917-.11.112zm-1.119-5.037h-.559l-.112.112-2.796 7.276v.335l.111.112h.336l.112-.112.783-2.015.223-.111h3.245l.223.11.783 2.016.112.112h.336l.112-.112v-.335l-2.797-7.276-.112-.112zM98.613 20.048v-3.917l-.112-.113h-3.356l-.112.113v.783l.112.112h2.238l.111.112c0 1.12-.559 2.126-2.236 2.126-1.567 0-2.462-1.23-2.462-3.022 0-1.79.895-3.022 2.573-3.022 1.23 0 1.901.56 2.125 1.343l.112.112h.895l.112-.112c-.224-1.119-1.119-2.35-3.244-2.35-2.349 0-3.692 1.68-3.692 4.03 0 2.35 1.343 4.03 3.581 4.03 1.005 0 1.677-.337 2.236-.897h.112l.111.672.113.112h.671l.112-.112zM109.157 27.211h-2.572l-.113-.112v-2.91l.113-.112h2.684c1.007 0 1.678.336 1.678 1.567 0 1.231-.671 1.567-1.79 1.567m2.461-1.567c0-1.455-.783-2.126-2.461-2.126h-3.243l-.112.111v7.611l.112.113h.447l.111-.113v-3.357l.113-.112h1.901l.224.112 2.125 3.357.224.113h.224l.111-.113v-.335l-1.901-3.022v-.112c.783 0 2.125-.336 2.125-2.127M112.625 23.518l-.111.112v.336l.11.112h2.462l.112.111v7.052l.112.112h.448l.11-.112v-7.052l.113-.111h2.46l.113-.112v-.336l-.112-.112zM122.662 12.325l-.111.112v7.611l.11.112h5.035l.112-.112v-.784l-.112-.11h-3.915l-.112-.114v-2.238l.112-.112h3.692l.11-.112v-.783l-.11-.112h-3.692l-.112-.112v-2.127l.112-.112h3.915l.112-.11v-.785l-.112-.112zM118.188 15.683c-1.566-.224-2.126-.448-2.126-1.343 0-.672.56-1.119 1.566-1.119 1.455 0 1.902.447 1.902 1.342l.112.112h.895l.112-.112c0-1.678-1.23-2.35-2.908-2.35-2.014 0-2.797 1.119-2.797 2.127 0 1.343 1.007 2.014 2.572 2.239 1.567.223 2.237.447 2.237 1.455 0 .895-.783 1.231-1.79 1.231-1.34 0-2.125-.448-2.125-1.567l-.11-.112h-.896l-.112.112c0 1.678 1.231 2.574 3.132 2.574 2.125 0 3.021-1.007 3.021-2.238 0-1.568-1.12-2.127-2.685-2.351M91.484 23.518l-.112.112v7.611l.112.112h.447l.112-.112v-3.358l.112-.112h3.691l.112-.112v-.336l-.112-.112h-3.69l-.113-.111v-2.911l.112-.111h3.915l.112-.112v-.336l-.112-.112zM86.786 26.875l2.908-2.91v-.336l-.111-.11h-.224l-.223.11-4.14 4.142h-.111V23.63l-.113-.11h-.447l-.112.11v7.611l.112.113h.447l.113-.113v-2.35l.11-.224 1.23-1.23h.114l3.02 3.804.224.113h.224l.11-.113v-.335l-3.131-3.918zM81.53 23.518l-.113.112v6.604h-.112l-4.474-6.604-.224-.112h-.559l-.113.112v7.611l.113.112h.447l.112-.112v-6.604h.111l4.475 6.604.224.112h.56l.111-.112V23.63l-.112-.112zM88.993 12.325l-.111.112v5.82h-.113l-3.802-5.82-.225-.112h-1.006l-.112.112v7.611l.112.112h.895l.11-.112v-5.82h.113l3.803 5.82.225.112h1.007l.11-.112v-7.61l-.11-.113zM70.984 19.153h-1.118l-.112-.112v-5.596l.112-.112h1.118c2.125 0 2.685 1.007 2.685 2.91 0 1.903-.56 2.91-2.685 2.91m.111-6.828h-2.348l-.113.112v7.612l.113.11h2.348c2.797 0 3.692-1.566 3.692-3.916 0-2.351-.895-3.918-3.692-3.918M93.833 6.169V1.244l-.111-.112h-.895l-.112.112v4.925c0 1.12-.56 1.903-1.902 1.903-1.342 0-1.902-.783-1.902-1.903V1.244l-.111-.112h-.895l-.112.112v4.925c0 1.79 1.118 2.91 3.02 2.91s3.02-1.12 3.02-2.91M12.386.094c-2.127.096-4.7.144-7.716.144C2.876.238 1.463.19.432.094v.98c1.095.048 1.889.175 2.38.382.493.207.83.59 1.013 1.147.182.558.274 1.45.274 2.676v22.03c0 1.657-.092 2.907-.274 3.75-.182.846-.528 1.47-1.036 1.877-.508.406-1.294.68-2.357.825v.979c1.03-.095 2.444-.144 4.238-.144 2.27 0 4.033.049 5.287.144v-.98c-1.461-.143-2.516-.421-3.167-.836-.651-.414-1.076-1.067-1.274-1.96-.198-.891-.298-2.31-.298-4.252V3.248l13.17 31.564h.785l3.633-9.514-.584-1.406L12.386.094z" fill="#FFF"/><g transform="translate(24.431 .04)"><mask id="b" fill="#fff"><use xlink:href="#a"/></mask><path d="M2.115.054v.98c1.08.048 1.866.175 2.358.382.492.207.83.59 1.012 1.147.183.558.275 1.45.275 2.676v19.475c0 2.565-.017 4.496-.048 5.794-.033 1.298-.116 2.417-.25 3.357a14.46 14.46 0 0 1-.632 2.652c-.381 1.052-1 1.9-1.858 2.545-.731.551-1.584.866-2.558.947L.41 41c2.143 0 4.012-.337 5.719-1.03 1.706-.693 3.115-1.64 4.226-2.843a10.144 10.144 0 0 0 2.334-4.098c.349-1.195.575-2.628.679-4.3.102-1.674.154-3.64.154-5.903V5.24c0-1.226.092-2.118.275-2.676.18-.557.519-.94 1.01-1.147.494-.207 1.287-.334 2.383-.382v-.98c-1.81.096-4.366.144-7.67.144C6.173.198 3.704.15 2.116.054" fill="#FFF" mask="url(#b)"/></g></g></svg>
