<?xml version="1.0" encoding="UTF-8" standalone="no"?>
<!DOCTYPE svg PUBLIC "-//W3C//DTD SVG 1.1//EN" "http://www.w3.org/Graphics/SVG/1.1/DTD/svg11.dtd">
<svg width="100%" height="100%" viewBox="0 0 880 740" version="1.1" xmlns="http://www.w3.org/2000/svg" xmlns:xlink="http://www.w3.org/1999/xlink" xml:space="preserve" xmlns:serif="http://www.serif.com/" style="fill-rule:evenodd;clip-rule:evenodd;stroke-linejoin:round;stroke-miterlimit:2;">
    <g id="Layer1">
        <path d="M725.645,593.777C708.232,614.555 648.882,676 556,676C444.215,676 425.051,623 283,623C140.949,623 85,668 85,668C85,668 78.207,517.15 240,472C240,472 179.458,408.105 41,419C41,419 81.389,257.655 267,249C267,249 227.5,168.86 82,156C82,156 166.441,44 361,44C361,44 545.164,35.628 702.014,194.996C703.388,194.591 806.007,164.42 834,188C861.683,211.319 800.243,324.878 798.059,328.891C807.645,356.037 832.689,448.744 766.94,537.643C787.605,542.349 802,552.834 802,565C802,581.557 775.339,595 742.5,595C736.648,595 730.992,594.573 725.645,593.777Z" style="fill:#194fff;"/>
        <path d="M541,264C541,264 458,256.711 458,400C458,543.289 524.897,560 574,560C623.103,560 663.455,526.499 709,549L742.5,544C742.5,544 783,503.771 783,413C783,322.229 751.712,323.336 742.5,366C733.288,408.664 683.281,520.502 668,435C652.719,349.498 623.273,264 541,264Z" style="fill:#fff;"/>
        <path d="M498.562,397.055C500.691,381.14 514.524,369.796 529.521,371.711C544.517,373.625 555.057,388.081 553.119,404.02L553.095,404.208C553.095,404.208 552.731,447.364 542.458,487.531C540.414,503.545 526.531,514.986 511.476,513.064C496.42,511.142 485.857,496.58 487.901,480.567C487.901,480.567 487.129,438.265 498.538,397.243L498.562,397.055Z" style="fill:#194fff;"/>
        <path d="M712.583,457.617C714.78,447.578 723.22,440.884 731.419,442.678C739.587,444.465 744.454,454.004 742.321,464L742.296,464.117C742.296,464.117 739.247,491.158 730.965,516.061L730.868,516.354C728.672,526.393 720.232,533.087 712.032,531.293C703.833,529.499 698.959,519.892 701.155,509.853C701.155,509.853 703.543,483.096 712.583,457.617Z" style="fill:#194fff;"/>
    </g>
</svg>
